<?xml version="1.0" encoding="UTF-8"?>
<svg version="1.1" xmlns="http://www.w3.org/2000/svg" width="1024" height="1024">
<path d="M0 0 C1.37907921 -0.00374629 2.75815629 -0.00835166 4.1372301 -0.01373065 C7.8891626 -0.02585364 11.64100523 -0.02571302 15.3929528 -0.02334189 C19.45359699 -0.02293103 23.51421338 -0.03399783 27.57484436 -0.04345703 C35.51335392 -0.06000518 43.45183377 -0.06556362 51.39035914 -0.06668179 C57.8425973 -0.06763447 64.29482571 -0.07175568 70.74706078 -0.07808304 C89.05713145 -0.0956725 107.36717875 -0.1049246 125.67725793 -0.10342209 C126.66247543 -0.10334218 127.64769293 -0.10326227 128.6627655 -0.10317993 C129.64919022 -0.10309817 130.63561493 -0.10301641 131.65193131 -0.10293217 C147.66009341 -0.10211818 163.66816168 -0.12129015 179.67629663 -0.14945666 C196.12973407 -0.17817773 212.5831257 -0.19199764 229.03658885 -0.19026911 C238.26770703 -0.18960532 247.49872659 -0.19509396 256.72982216 -0.21662521 C264.58284444 -0.23482595 272.43572331 -0.23919286 280.28875754 -0.22560637 C284.29389142 -0.21907332 288.29875005 -0.21897191 292.3038578 -0.23631287 C295.97208137 -0.25203212 299.63981114 -0.24919225 303.30802258 -0.2317446 C305.25898513 -0.22722018 307.20996294 -0.24234028 309.16086608 -0.25822389 C316.2003948 -0.20278446 320.88359426 0.42997721 326.84855652 4.26742554 C331.63100039 9.30157699 333.0860916 13.17362697 333.25822449 20.0743103 C333.27729984 20.76407644 333.2963752 21.45384258 333.31602859 22.16451073 C333.37650968 24.49166127 333.42172156 26.81881504 333.46574402 29.14633179 C333.50356563 30.82720645 333.54148136 32.50807899 333.57948303 34.18894958 C334.02736118 55.51687925 333.99989275 76.85161363 333.97892761 98.18319702 C333.97312706 104.11601986 333.9765937 110.04879847 333.98250008 115.98161983 C333.98610808 120.60642331 333.98496776 125.23121619 333.98237228 129.85601997 C333.981709 132.04681974 333.98251033 134.2376205 333.98485184 136.42841911 C333.98739357 139.46193915 333.98352098 142.4953856 333.97795105 145.52890015 C333.97997528 146.41651031 333.98199951 147.30412048 333.98408508 148.21862793 C333.96781007 153.00781207 333.65211754 157.54429235 332.84855652 162.26742554 C328.97280493 161.67312914 326.0910847 160.51023597 322.67277527 158.60726929 C321.68914001 158.06537964 320.70550476 157.52348999 319.69206238 156.96517944 C318.65058044 156.38429565 317.60909851 155.80341187 316.53605652 155.20492554 C314.34431957 154.00133203 312.15161168 152.79950492 309.95793152 151.59945679 C308.89767761 151.01889526 307.83742371 150.43833374 306.74504089 149.84017944 C301.3540804 146.91295696 295.87657125 144.1774482 290.35978699 141.49642944 C287.26571061 139.98217896 284.18513689 138.44147239 281.10246277 136.90414429 C235.94708604 114.49597745 186.81639873 94.17054217 135.84855652 92.26742554 C134.91914246 92.22617554 133.98972839 92.18492554 133.03215027 92.14242554 C100.6652815 91.4057685 70.3409459 99.64410396 45.44230652 120.77133179 C30.1408572 135.49667232 21.31970616 155.80709056 20.64543152 177.01742554 C20.32339291 198.33476141 23.85387674 218.18802424 38.84855652 234.26742554 C39.67355652 235.15430054 40.49855652 236.04117554 41.34855652 236.95492554 C42.17355652 237.71805054 42.99855652 238.48117554 43.84855652 239.26742554 C44.37320496 239.78562866 44.89785339 240.30383179 45.43840027 240.83773804 C61.80468593 256.26979597 85.94462738 263.26231411 106.64152527 270.72055054 C152.83437711 287.42928818 152.83437711 287.42928818 161.16105652 304.70492554 C164.69269119 313.5191734 164.04110484 320.40313386 160.84855652 329.26742554 C156.20870306 338.84360871 148.2642966 344.93682542 138.36808777 348.49398804 C134.21878264 349.76772822 130.14786184 350.66737861 125.84855652 351.26742554 C124.88047058 351.4027771 123.91238464 351.53812866 122.91496277 351.67758179 C56.36190103 358.6285018 -11.95792203 314.79754942 -65.33894348 280.39242554 C-66.30791565 279.76884155 -66.30791565 279.76884155 -67.29646301 279.13265991 C-68.52902078 278.33230596 -69.75356431 277.51942131 -70.96822739 276.69216156 C-73.17442893 275.21376781 -73.17442893 275.21376781 -75.6836586 273.87216949 C-82.5878859 269.76655435 -82.5878859 269.76655435 -84.06694794 265.83207703 C-84.40527634 262.87501211 -84.42557468 260.06109617 -84.33796692 257.08578491 C-84.34538658 255.97362106 -84.35280624 254.86145721 -84.36045074 253.71559143 C-84.37396354 250.01248128 -84.31712912 246.31383022 -84.26081848 242.61117554 C-84.25717208 239.9757205 -84.25831194 237.34025504 -84.26393127 234.70480347 C-84.27094022 229.10632584 -84.24580371 223.50878381 -84.20149231 217.91049194 C-84.13714905 209.39194383 -84.17904345 200.87568773 -84.24324036 192.35726929 C-84.26363813 189.52044048 -84.28340283 186.68360782 -84.3026886 183.84677124 C-84.30747553 183.1427225 -84.31226247 182.43867376 -84.31719446 181.71329021 C-84.3773553 172.4024025 -84.38266793 163.09143151 -84.38874054 153.78038025 C-84.38970471 152.34149169 -84.39068383 150.90260314 -84.39167786 149.4637146 C-84.39238431 148.39351908 -84.39238431 148.39351908 -84.39310503 147.30170345 C-84.39818292 141.41008263 -84.418491 135.51857414 -84.44133878 129.62699938 C-84.46308679 123.8072985 -84.47304762 117.98764822 -84.4743793 112.16790724 C-84.47540794 108.75146691 -84.48089923 105.33520319 -84.49919891 101.91880798 C-84.58856407 82.38859125 -84.60837055 63.29594628 -76.15144348 45.26742554 C-75.73249817 44.34961304 -75.31355286 43.43180054 -74.88191223 42.48617554 C-67.53700983 27.75403701 -55.72256016 16.64637283 -41.40144348 8.82992554 C-40.77528137 8.48727661 -40.14911926 8.14462769 -39.50398254 7.79159546 C-35.70263947 5.80958205 -32.35813596 4.91606225 -28.15144348 4.26742554 C-27.82144348 3.60742554 -27.49144348 2.94742554 -27.15144348 2.26742554 C-18.28131853 0.00475351 -9.09373599 -0.02248963 0 0 Z " fill="#F9712D" transform="translate(380.1514434814453,261.7325744628906)"/>
<path d="M0 0 C1.47581543 0.71639648 1.47581543 0.71639648 2.98144531 1.44726562 C14.51433276 7.06037746 26.09213354 12.71283072 36.8331604 19.76568604 C38.9865497 21.09587993 38.9865497 21.09587993 41.53121948 21.78189087 C44.92282985 23.07694339 46.65205832 24.19539082 49 27 C51.01261143 33.91035569 50.24336178 41.61044915 50.1171875 48.72265625 C50.11403677 50.95679045 50.11559379 53.19093561 50.12155151 55.42506409 C50.12639389 60.17397997 50.10240778 64.92153455 50.05651855 69.67022705 C49.99095722 76.88750957 50.0145459 84.10248815 50.05957031 91.31982422 C50.13655538 104.78099686 50.13932122 118.24140995 50.12695312 131.70275879 C50.1249885 135.45948077 50.12696639 139.21617965 50.13037109 142.97290039 C50.14509418 159.31571559 50.11902551 175.65756737 50 192 C49.99350937 192.94531837 49.98701874 193.89063675 49.98033142 194.86460114 C49.94286544 199.86460842 49.88317883 204.86328363 49.78292465 209.86244392 C49.74437956 211.91824292 49.72217594 213.97432942 49.70095825 216.03038025 C49.39031632 228.133316 47.06778488 240.56629198 41.25 251.3125 C40.90565918 251.97072754 40.56131836 252.62895508 40.20654297 253.30712891 C29.17617171 273.86806197 11.28003274 288.90141317 -10.82421875 296.359375 C-21.63827335 299.58605507 -31.91323149 300.14888196 -43.12547302 300.14717102 C-44.42876039 300.15084771 -45.73204776 300.1545244 -47.07482868 300.1583125 C-50.67229203 300.16826242 -54.2697387 300.17203784 -57.86721385 300.17470181 C-61.75481592 300.17862543 -65.64240504 300.18820172 -69.52999878 300.19691467 C-78.90419676 300.21661363 -88.27839572 300.22673357 -97.6526092 300.23564246 C-102.07193022 300.24003317 -106.49125006 300.24539766 -110.91057014 300.25063133 C-125.60649968 300.26763143 -140.3024285 300.28212715 -154.99836636 300.28938007 C-158.80595844 300.29128979 -162.61355052 300.29321016 -166.42114258 300.29516602 C-167.36743607 300.29564976 -168.31372957 300.2961335 -169.28869862 300.2966319 C-184.62970861 300.30493843 -199.97064078 300.33029132 -215.31161677 300.36274669 C-231.07562453 300.39582448 -246.83959272 300.41382919 -262.60363537 300.41702431 C-271.44923525 300.41918794 -280.2947214 300.42791587 -289.1402874 300.45348549 C-296.66981895 300.47520169 -304.19920908 300.4832381 -311.7287684 300.47351871 C-315.56806059 300.46897766 -319.40706102 300.47084891 -323.2463131 300.49028015 C-327.41359451 300.51118925 -331.58023038 300.50091573 -335.74754333 300.48774719 C-337.55646086 300.50420106 -337.55646086 300.50420106 -339.40192217 300.52098733 C-347.21233583 300.46144353 -354.90458788 299.69361627 -360.94042009 294.24995214 C-365.3995537 289.42520766 -367.2092275 284.75628776 -367.41062927 278.17500305 C-367.44888101 277.03067149 -367.48713274 275.88633993 -367.52654362 274.70733166 C-367.55702006 273.47658067 -367.58749651 272.24582968 -367.61889648 270.9777832 C-367.656566 269.68872983 -367.69423552 268.39967646 -367.73304653 267.07156086 C-368.11109933 253.50090837 -368.12707742 239.93034868 -368.09765625 226.35546875 C-368.09578353 223.7513278 -368.09436368 221.14718648 -368.09336853 218.54304504 C-368.09031201 212.48078819 -368.08217889 206.41855027 -368.07201904 200.35630161 C-368.06067679 193.43194248 -368.05530278 186.50758224 -368.05032361 179.58321607 C-368.0399885 165.38880072 -368.02250449 151.19440104 -368 137 C-364.26754761 135.88882446 -364.26754761 135.88882446 -361.85961914 136.8894043 C-361.09254639 137.36289307 -360.32547363 137.83638184 -359.53515625 138.32421875 C-358.66375 138.85217041 -357.79234375 139.38012207 -356.89453125 139.92407227 C-355.95996094 140.50600342 -355.02539062 141.08793457 -354.0625 141.6875 C-352.06461227 142.89977373 -350.06589431 144.11068012 -348.06640625 145.3203125 C-347.0520752 145.9380957 -346.03774414 146.55587891 -344.99267578 147.19238281 C-337.95216197 151.44494965 -330.78629607 155.48276193 -323.62109375 159.52050781 C-321.88159193 160.50238011 -320.14457821 161.48867421 -318.41015625 162.47949219 C-260.92343626 195.26421182 -189.00207785 219.76299506 -122.55859375 203.3203125 C-98.45260872 196.68525185 -74.75445535 183.49379885 -61.875 161.375 C-49.77210783 139.65856721 -44.79686292 114.47167705 -51.09765625 90.0234375 C-51.39542969 89.02570313 -51.69320313 88.02796875 -52 87 C-52.40025391 85.59621094 -52.40025391 85.59621094 -52.80859375 84.1640625 C-56.70914747 72.06367808 -64.11323922 61.93060993 -73 53 C-73.763125 52.20207031 -74.52625 51.40414062 -75.3125 50.58203125 C-91.7268282 34.44982431 -113.84795504 26.01438361 -135.09375 18.3203125 C-136.45080803 17.82803917 -136.45080803 17.82803917 -137.83528137 17.32582092 C-142.41969025 15.66571782 -147.00878481 14.02128284 -151.6081543 12.40307617 C-160.26073759 9.32912417 -168.42465104 6.32374161 -176 1 C-176.57298828 0.63011963 -177.14597656 0.26023926 -177.73632812 -0.12084961 C-183.28537012 -4.09611591 -186.18767179 -10.24957562 -187.6015625 -16.77734375 C-188.72048952 -26.05402942 -187.24543457 -33.30458979 -181.765625 -40.92578125 C-175.54439214 -48.23435348 -167.53011072 -51.96992976 -158.04516602 -52.88134766 C-104.73435783 -55.9742273 -46.60671227 -22.70847059 0 0 Z " fill="#F9712D" transform="translate(664,465)"/>
<path d="M0 0 C0.33 0 0.66 0 1 0 C1.83167066 12.12602936 2.11191619 24.17361566 2.01403427 36.32625198 C1.99156347 39.24512164 1.97778231 42.16392248 1.96633911 45.08285522 C1.93313701 53.36636555 1.89081212 61.64975893 1.82861328 69.93310547 C1.79089495 75.03723232 1.76793094 80.14124937 1.75430679 85.24549484 C1.74629071 87.17592854 1.73273643 89.10634796 1.71337509 91.0367012 C1.68678302 93.72984683 1.67899417 96.42246166 1.67529297 99.11572266 C1.6629361 99.90024811 1.65057922 100.68477356 1.6378479 101.49307251 C1.66171151 108.10526682 3.02717784 113.5339723 7.25 118.8125 C14.45921284 124.54710112 21.01976526 124.42815601 29.94070435 124.3742218 C31.90214773 124.38018341 31.90214773 124.38018341 33.90321624 124.38626546 C37.52229419 124.39683069 41.14112436 124.38873733 44.76019144 124.37751496 C48.66765813 124.36866052 52.57509282 124.37712027 56.4825592 124.38337708 C64.13483659 124.39286146 71.78701962 124.38626746 79.43929 124.37411413 C88.35789186 124.36047891 97.27647135 124.36213348 106.19508098 124.36424746 C122.11672697 124.36743712 138.03832822 124.35577322 153.95996094 124.33618164 C169.392592 124.31719687 184.82517059 124.31008912 200.2578125 124.31567383 C217.07253776 124.32174071 233.88723995 124.32153644 250.70196331 124.310188 C252.49755597 124.30898076 254.29314864 124.30777477 256.0887413 124.30657005 C256.97212653 124.30596651 257.85551175 124.30536298 258.76566622 124.30474115 C264.9743051 124.30087103 271.18293536 124.30125219 277.39157486 124.3031559 C284.96826195 124.30528492 292.54490323 124.30000095 300.12157746 124.28554235 C303.98341506 124.27833048 307.84518617 124.27419362 311.70702934 124.27878571 C315.90388245 124.28365444 320.10055556 124.27288725 324.2973938 124.26069641 C325.50374642 124.26447573 326.71009905 124.26825506 327.95300782 124.27214891 C352.00401282 124.14907652 373.13658821 116.30365757 390.46777344 99.56884766 C397.46893359 92.40035576 402.52664475 83.91162536 407 75 C407.99940837 77.59965152 408.14668375 78.65754076 407.03125 81.26171875 C393.09876882 103.33332797 374.70017264 118.38019816 349.37890625 125.30859375 C340.88456202 127.0467428 332.51188233 127.14848904 323.87452698 127.14717102 C322.57123961 127.15084771 321.26795224 127.1545244 319.92517132 127.1583125 C316.32770797 127.16826242 312.7302613 127.17203784 309.13278615 127.17470181 C305.24518408 127.17862543 301.35759496 127.18820172 297.47000122 127.19691467 C288.09580324 127.21661363 278.72160428 127.22673357 269.3473908 127.23564246 C264.92806978 127.24003317 260.50874994 127.24539766 256.08942986 127.25063133 C241.39350032 127.26763143 226.6975715 127.28212715 212.00163364 127.28938007 C208.19404156 127.29128979 204.38644948 127.29321016 200.57885742 127.29516602 C199.63256393 127.29564976 198.68627043 127.2961335 197.71130138 127.2966319 C182.37029139 127.30493843 167.02935922 127.33029132 151.68838323 127.36274669 C135.92437547 127.39582448 120.16040728 127.41382919 104.39636463 127.41702431 C95.55076475 127.41918794 86.7052786 127.42791587 77.8597126 127.45348549 C70.33018105 127.47520169 62.80079092 127.4832381 55.2712316 127.47351871 C51.43193941 127.46897766 47.59293898 127.47084891 43.7536869 127.49028015 C39.58640549 127.51118925 35.41976962 127.50091573 31.25245667 127.48774719 C29.44353914 127.50420106 29.44353914 127.50420106 27.59807783 127.52098733 C19.78766417 127.46144353 12.09541212 126.69361627 6.05957991 121.24995214 C1.6288433 116.45593298 -0.20758554 111.79994043 -0.40966797 105.2578125 C-0.44778595 104.12545166 -0.48590393 102.99309082 -0.525177 101.82641602 C-0.55554047 100.60494873 -0.58590393 99.38348145 -0.6171875 98.125 C-0.65472137 96.84359131 -0.69225525 95.56218262 -0.73092651 94.24194336 C-1.09590234 81.1315454 -1.15177643 68.01869526 -1.13037109 54.90380859 C-1.12496367 50.97359432 -1.13038677 47.04349233 -1.13671875 43.11328125 C-1.14009931 28.7120791 -0.87072435 14.37587723 0 0 Z " fill="#FB6520" transform="translate(297,638)"/>
<path d="M0 0 C1.16101028 -0.00644889 2.32202056 -0.01289778 3.51821297 -0.0195421 C4.79970327 -0.01644489 6.08119357 -0.01334769 7.40151691 -0.01015663 C8.77196561 -0.01389131 10.14241218 -0.0184921 11.51285535 -0.02388728 C15.28738078 -0.03615572 19.06181783 -0.0358523 22.83635867 -0.03349853 C26.9039956 -0.03309132 30.97160383 -0.04412047 35.03922749 -0.05361366 C43.01252917 -0.07024671 50.98580129 -0.07572429 58.95911887 -0.07683842 C65.44020034 -0.077788 71.92127204 -0.08189377 78.40235043 -0.08823967 C96.7715026 -0.10585994 115.14063137 -0.11507755 133.50979205 -0.11357872 C134.50066358 -0.11349881 135.49153511 -0.1134189 136.51243305 -0.11333656 C138.00055265 -0.11321392 138.00055265 -0.11321392 139.51873527 -0.1130888 C155.59219835 -0.11227613 171.66556766 -0.13140698 187.73900362 -0.1596133 C204.23732497 -0.18833699 220.73560059 -0.20215381 237.23394758 -0.20042574 C246.49874917 -0.19976157 255.76345253 -0.20526575 265.02823162 -0.22678185 C272.91809391 -0.24498709 280.80781346 -0.24934656 288.69768765 -0.235763 C292.72300418 -0.22922942 296.74804683 -0.2291299 300.77333736 -0.2464695 C304.46046331 -0.26218886 308.14709798 -0.25934862 311.83421186 -0.24190123 C313.79559162 -0.23737631 315.75698653 -0.25249784 317.7183072 -0.26838052 C324.77346081 -0.2131099 329.47600032 0.40742086 335.4526186 4.25726891 C340.46101325 9.52926327 341.75146085 13.77954259 341.8666811 20.94086266 C341.88613789 21.700765 341.90559467 22.46066734 341.92564106 23.24359703 C341.98620157 25.72720741 342.03246859 28.21083417 342.0776186 30.69476891 C342.11483011 32.40905142 342.15243072 34.12332553 342.19041157 35.83759117 C342.41394871 46.45560531 342.54853129 57.07443815 342.5776186 67.69476891 C342.58229145 68.87031334 342.5869643 70.04585777 342.59177876 71.25702477 C342.58134236 76.6971946 342.4238472 81.90009528 341.4526186 87.25726891 C340.7926186 86.92726891 340.1326186 86.59726891 339.4526186 86.25726891 C339.44381924 84.90209915 339.44381924 84.90209915 339.43484211 83.51955223 C339.37690888 75.00028777 339.30482846 66.48128531 339.21690369 57.96227551 C339.1721996 53.58267944 339.13294362 49.2031764 339.10618305 44.82343102 C339.08015035 40.59574132 339.03974838 36.36840961 338.98943233 32.14094162 C338.97276335 30.52908027 338.96124925 28.917157 338.95500469 27.30522156 C338.94536369 25.04512298 338.9173061 22.78594029 338.88499165 20.52606773 C338.87388859 19.24033363 338.86278553 17.95459953 338.85134602 16.62990379 C338.27048695 11.71670876 336.5597345 9.22937067 332.8901186 6.00726891 C329.24845027 3.3927378 327.3960756 3.13017321 322.94346905 3.11860371 C321.76558264 3.11312926 320.58769624 3.10765482 319.3741163 3.10201448 C318.06869241 3.10103638 316.76326852 3.10005827 315.41828632 3.09905052 C314.02650103 3.09448747 312.63471712 3.08948783 311.24293482 3.08408695 C307.40512615 3.0704672 303.56732637 3.06307643 299.72949982 3.05666029 C295.59587971 3.04867316 291.46227821 3.03496961 287.32867146 3.02194786 C280.1624977 3.00016112 272.99632209 2.98202469 265.83013248 2.96634293 C255.46892853 2.94366427 245.10774515 2.91551869 234.74655862 2.88602365 C217.93765019 2.83832311 201.12873335 2.79506562 184.3198061 2.75458336 C167.98809372 2.71524094 151.65638881 2.67381774 135.32468891 2.62958336 C134.31859685 2.62685909 133.31250479 2.62413481 132.27592508 2.62132799 C127.22883425 2.60764872 122.18174352 2.5939284 117.13465285 2.58018768 C75.24065699 2.46618424 33.34664502 2.35938346 -8.5473814 2.25726891 C-5.14947697 -0.00800072 -3.98496319 0.00558018 0 0 Z " fill="#F95E1B" transform="translate(371.547381401062,261.74273109436035)"/>
<path d="M0 0 C0.33 0 0.66 0 1 0 C1.02578125 0.68964844 1.0515625 1.37929688 1.078125 2.08984375 C1.61311451 10.9536473 3.78195424 18.69172863 9.95703125 25.32421875 C23.00570126 36.02762111 42.84103476 40.6871478 58.609375 45.875 C88.06713857 55.6490045 115.13880404 71.69086972 131 99 C131.43054688 99.74121094 131.86109375 100.48242188 132.3046875 101.24609375 C136.22688519 108.55840804 139.34687318 116.65026708 139 125 C136.65361686 122.65361686 136.26623221 120.64207061 135.45458984 117.4909668 C131.50894557 102.2352512 124.08232426 90.9880066 113 80 C112.26652344 79.23300781 111.53304687 78.46601562 110.77734375 77.67578125 C94.80411074 61.98426311 72.54618045 53.79497244 51.90625 46.3203125 C51.00154465 45.99213028 50.09683929 45.66394806 49.16471863 45.32582092 C44.58030975 43.66571782 39.99121519 42.02128284 35.3918457 40.40307617 C26.73926241 37.32912417 18.57534896 34.32374161 11 29 C10.42701172 28.63011963 9.85402344 28.26023926 9.26367188 27.87915039 C3.67079888 23.87248409 0.68863754 17.63315667 -0.56640625 11.01171875 C-0.99035962 6.96001246 -1.29848701 3.89546103 0 0 Z " fill="#FB5C1A" transform="translate(477,437)"/>
<path d="M0 0 C3.64545882 0.60913836 6.69725739 1.61622115 10.05078125 3.16015625 C11.53976929 3.84392334 11.53976929 3.84392334 13.05883789 4.54150391 C14.13254639 5.04343262 15.20625488 5.54536133 16.3125 6.0625 C17.44099365 6.58763184 18.5694873 7.11276367 19.73217773 7.65380859 C62.12059692 27.52850633 62.12059692 27.52850633 78.00097656 37.80596924 C80.04104907 39.07163721 80.04104907 39.07163721 82.49290466 40.15542603 C89.43806786 43.60969504 89.43806786 43.60969504 90.92559814 47.29006958 C91.27343924 50.10541469 91.30728806 52.77352762 91.23046875 55.609375 C91.24129486 56.64186371 91.25212097 57.67435242 91.26327515 58.73812866 C91.28597573 62.07730593 91.23801719 65.41119963 91.1875 68.75 C91.18813084 71.0271853 91.19260858 73.30437278 91.20092773 75.58154297 C91.20729298 82.05613153 91.12392844 88.52670513 91 95 C90.9841687 95.84558472 90.9683374 96.69116943 90.95202637 97.56237793 C90.79514273 105.38485015 90.50451119 113.19171913 90 121 C89.67 121 89.34 121 89 121 C88.13282672 116.63116665 87.960265 112.69452146 88.18798828 108.2512207 C88.25089202 106.91242009 88.31287171 105.57357582 88.37405396 104.23469543 C88.42402716 103.18223601 88.42402716 103.18223601 88.47500992 102.10851479 C88.67329156 97.56723175 88.78199909 93.02275219 88.90229988 88.47884846 C89.01258479 84.49965475 89.15735763 80.52767209 89.37841797 76.55297852 C91.01302306 59.83849059 91.01302306 59.83849059 86.25427246 44.53997803 C81.85035571 40.6455921 76.86208958 38.59049209 71.32147217 36.78643799 C68.30911803 35.76595204 65.69611783 34.28313043 62.96875 32.66015625 C61.31449479 31.76972157 59.65833077 30.88282119 58 30 C56.73542969 29.32300049 56.73542969 29.32300049 55.4453125 28.63232422 C40.7567234 20.80557789 25.84328964 13.51291833 10.82080078 6.35546875 C7.19217111 4.61181704 3.59285909 2.81607458 0 1 C0 0.67 0 0.34 0 0 Z " fill="#F95B19" transform="translate(623,447)"/>
<path d="M0 0 C0.33 0 0.66 0 1 0 C1.94932552 7.67668058 2.14640193 15.25095711 2.1328125 22.98046875 C2.13376923 24.19269608 2.13472595 25.4049234 2.13571167 26.65388489 C2.13638862 29.20114189 2.13456836 31.74840066 2.13037109 34.2956543 C2.12500197 38.18607455 2.13033981 42.0763801 2.13671875 45.96679688 C2.13605816 48.45052109 2.13477738 50.93424523 2.1328125 53.41796875 C2.13483673 54.57540085 2.13686096 55.73283295 2.13894653 56.92533875 C2.12311926 62.39007024 1.975141 67.61832562 1 73 C-2.87575159 72.4057036 -5.75747182 71.24281043 -9.17578125 69.33984375 C-10.1594165 68.7979541 -11.14305176 68.25606445 -12.15649414 67.69775391 C-13.19797607 67.11687012 -14.23945801 66.53598633 -15.3125 65.9375 C-17.50423694 64.73390649 -19.69694484 63.53207938 -21.890625 62.33203125 C-22.95087891 61.75146973 -24.01113281 61.1709082 -25.10351562 60.57275391 C-30.49033087 57.64778224 -35.96324678 54.91283304 -41.47558594 52.23339844 C-43.98914828 51.00530202 -46.49540163 49.76292224 -49.00108337 48.5188446 C-64.17637643 40.9964551 -79.42129191 33.9167661 -95.17456055 27.68066406 C-96.32093994 27.22272461 -97.46731934 26.76478516 -98.6484375 26.29296875 C-99.66083496 25.8961792 -100.67323242 25.49938965 -101.71630859 25.09057617 C-104 24 -104 24 -105 22 C-103.68495941 22.23627207 -102.37308034 22.49012424 -101.0625 22.75 C-100.33160156 22.88921875 -99.60070312 23.0284375 -98.84765625 23.171875 C-94.71147825 24.37471414 -90.90679741 26.20050066 -87 28 C-85.43670895 28.70556047 -83.87290394 29.40998324 -82.30859375 30.11328125 C-79.80446238 31.2435457 -77.30059542 32.37438872 -74.79711914 33.50610352 C-70.81610122 35.30110794 -66.83321054 37.08454616 -62.8125 38.7890625 C-53.14267461 42.89221768 -43.91112064 47.6211319 -34.65673828 52.58496094 C-28.797891 55.70551588 -22.89643424 58.74564961 -17.00366211 61.80151367 C-16.09237549 62.27564697 -15.18108887 62.74978027 -14.2421875 63.23828125 C-13.4466748 63.65118408 -12.65116211 64.06408691 -11.83154297 64.48950195 C-7.85982513 66.60823089 -3.93502409 68.81387551 0 71 C0 47.57 0 24.14 0 0 Z " fill="#FA5917" transform="translate(712,351)"/>
<path d="M0 0 C4.92014278 1.26157507 8.48315957 3.53199538 12.6015625 6.37109375 C16.62139333 9.1011743 20.82147484 11.52277257 25 14 C26.7285688 15.03954485 28.45709567 16.07916023 30.18481445 17.12011719 C32.77160121 18.67669619 35.36271713 20.22599269 37.95410156 21.77490234 C39.32972023 22.598632 40.70405097 23.42451592 42.07714844 24.25244141 C51.48499368 29.92205552 60.9733042 35.21547443 70.87402344 39.97607422 C73.14256868 41.0686648 75.4030888 42.17699082 77.6640625 43.28515625 C87.59770831 48.11588801 97.57622299 52.35600327 108 56 C108.96744141 56.3398291 109.93488281 56.6796582 110.93164062 57.02978516 C117.61396761 59.37393889 124.30380976 61.69576419 131 64 C131 64.33 131 64.66 131 65 C123.71923941 64.49012181 117.52200534 62.76283035 110.6875 60.25 C109.61226074 59.85804443 108.53702148 59.46608887 107.42919922 59.06225586 C76.65985118 47.55528992 47.84277441 31.43335633 19.9375 14.25 C19.0933252 13.73139404 18.24915039 13.21278809 17.37939453 12.6784668 C11.45518297 9.00050419 5.53756546 5.24529523 0 1 C0 0.67 0 0.34 0 0 Z " fill="#FA5B19" transform="translate(314,540)"/>
<path d="M0 0 C0.33 0 0.66 0 1 0 C1.83167066 12.12602936 2.11191619 24.17361566 2.01403427 36.32625198 C1.99156347 39.24512164 1.97778231 42.16392248 1.96633911 45.08285522 C1.93313701 53.36636555 1.89081212 61.64975893 1.82861328 69.93310547 C1.79089495 75.03723232 1.76793094 80.14124937 1.75430679 85.24549484 C1.74629071 87.17592854 1.73273643 89.10634796 1.71337509 91.0367012 C1.68678302 93.72984683 1.67899417 96.42246166 1.67529297 99.11572266 C1.6629361 99.90024811 1.65057922 100.68477356 1.6378479 101.49307251 C1.66171151 108.10526682 3.02717784 113.5339723 7.25 118.8125 C10.42748738 121.34004678 13.21010502 122.58807834 17 124 C17 124.66 17 125.32 17 126 C11.34840542 125.33510652 7.56536646 122.69581367 3.75 118.5625 C0.77017759 114.19918862 -0.24721321 110.51705148 -0.40966797 105.2578125 C-0.44778595 104.12545166 -0.48590393 102.99309082 -0.525177 101.82641602 C-0.55554047 100.60494873 -0.58590393 99.38348145 -0.6171875 98.125 C-0.65472137 96.84359131 -0.69225525 95.56218262 -0.73092651 94.24194336 C-1.09590234 81.1315454 -1.15177643 68.01869526 -1.13037109 54.90380859 C-1.12496367 50.97359432 -1.13038677 47.04349233 -1.13671875 43.11328125 C-1.14009931 28.7120791 -0.87072435 14.37587723 0 0 Z " fill="#F75E1D" transform="translate(297,638)"/>
<path d="M0 0 C-1.48886719 0.60134766 -1.48886719 0.60134766 -3.0078125 1.21484375 C-26.53835586 10.96067048 -47.05949713 25.88263001 -57.23730469 49.98291016 C-59.6944273 56.48122866 -61.34245555 63.26288384 -63 70 C-63.33 70 -63.66 70 -64 70 C-63.91845145 50.75454223 -53.29291301 34.47924802 -40.2578125 21.10546875 C-32.09317651 13.10116549 -11.83683222 -3.67349965 0 0 Z " fill="#FA5C19" transform="translate(464,360)"/>
<path d="M0 0 C3.25863282 1.62931641 3.82878448 5.19623094 5.125 8.4375 C8.11094035 15.5861177 11.68285186 21.2982071 17 27 C18.2375 28.3303125 18.2375 28.3303125 19.5 29.6875 C20.325 30.450625 21.15 31.21375 22 32 C22.52464844 32.51820313 23.04929687 33.03640625 23.58984375 33.5703125 C32.27291646 41.75773412 43.27838931 46.84686718 54.06640625 51.6796875 C57.76960361 53.34637286 61.38256952 55.15581976 65 57 C61.33898326 58.22033891 60.56258003 57.67545838 57.09765625 56.19140625 C56.13061768 55.77834229 55.1635791 55.36527832 54.16723633 54.93969727 C53.14267334 54.48522217 52.11811035 54.03074707 51.0625 53.5625 C50.01795654 53.10093506 48.97341309 52.63937012 47.8972168 52.16381836 C28.04011001 43.19893917 10.50373994 28.94315911 1.86328125 8.42578125 C0.87044782 5.63596423 0.23956212 2.95459947 0 0 Z " fill="#FA5D1B" transform="translate(402,469)"/>
<path d="M0 0 C0.99940837 2.59965152 1.14668375 3.65754076 0.03125 6.26171875 C-13.84323914 28.24145793 -32.51875715 43.80311257 -57.9140625 50.45703125 C-61.97442173 51.17144889 -65.0093528 50.95775533 -69 50 C-69 49.67 -69 49.34 -69 49 C-67.80117188 48.85304688 -67.80117188 48.85304688 -66.578125 48.703125 C-43.94843039 45.62208677 -24.07452726 35.08375505 -10 16.9375 C-6.18898733 11.54509515 -2.96047463 5.89772985 0 0 Z " fill="#FA5D1A" transform="translate(704,713)"/>
<path d="M0 0 C0.33 0 0.66 0 1 0 C1.8345573 8.422545 2.14778156 16.74984512 2.1328125 25.2109375 C2.13376923 26.4227066 2.13472595 27.63447571 2.13571167 28.88296509 C2.13638736 31.42246554 2.13457609 33.96196778 2.13037109 36.50146484 C2.12498595 40.38513034 2.13035129 44.26868167 2.13671875 48.15234375 C2.13605841 50.63020859 2.13477816 53.10807335 2.1328125 55.5859375 C2.13483673 56.74225677 2.13686096 57.89857605 2.13894653 59.0899353 C2.13579437 60.17191193 2.13264221 61.25388855 2.12939453 62.36865234 C2.12820114 63.78662613 2.12820114 63.78662613 2.12698364 65.23324585 C1.9899434 68.21911603 1.54549454 71.0635209 1 74 C-1.36107261 70.45839109 -1.24821144 68.9837173 -1.24291992 64.7878418 C-1.24599655 63.50608566 -1.24907318 62.22432953 -1.25224304 60.9037323 C-1.24534266 59.50222598 -1.23807549 58.10072142 -1.23046875 56.69921875 C-1.22927612 55.26056459 -1.22882396 53.82190964 -1.2290802 52.383255 C-1.22751573 49.36621227 -1.21923186 46.34928825 -1.20581055 43.33227539 C-1.1888666 39.47554909 -1.18499501 35.61895379 -1.18575573 31.76219463 C-1.18548293 28.78954327 -1.17998339 25.81692024 -1.17275429 22.84427834 C-1.16958346 21.42299425 -1.16760394 20.00170697 -1.16686058 18.58041954 C-1.16467753 16.58704849 -1.15511276 14.59368971 -1.14526367 12.6003418 C-1.14145187 11.46799606 -1.13764008 10.33565033 -1.13371277 9.16899109 C-1.00149658 6.03546894 -0.58409242 3.07855355 0 0 Z " fill="#F75615" transform="translate(712,570)"/>
<path d="M0 0 C4.02249901 0.58980924 6.87514123 1.8631084 10.3671875 3.921875 C11.40697754 4.52926514 12.44676758 5.13665527 13.51806641 5.76245117 C14.62585449 6.41834229 15.73364258 7.0742334 16.875 7.75 C18.61920856 8.77141372 20.36499046 9.79010322 22.11080933 10.8087616 C23.30230393 11.50424787 24.49332024 12.20055415 25.68386841 12.8976593 C31.63429685 16.38051416 37.62333167 19.79375228 43.625 23.1875 C44.55296387 23.71504883 45.48092773 24.24259766 46.43701172 24.78613281 C51.5565566 27.68129783 56.71484386 30.41902049 62 33 C62 33.66 62 34.32 62 35 C58.92159069 34.34808619 56.39896602 33.30223996 53.61328125 31.84765625 C52.76580322 31.40599121 51.9183252 30.96432617 51.04516602 30.50927734 C50.14338623 30.03184082 49.24160645 29.5544043 48.3125 29.0625 C47.37784912 28.56959473 46.44319824 28.07668945 45.48022461 27.56884766 C32.97253966 20.92091578 20.8716159 13.71049145 9.05078125 5.91015625 C6.1076836 4.0674229 3.13068277 2.49728307 0 1 C0 0.67 0 0.34 0 0 Z " fill="#FA5B1A" transform="translate(298,602)"/>
<path d="M0 0 C0.33 0 0.66 0 1 0 C2.30174749 14.31922242 -7.59629411 31.96747694 -16.2421875 42.8125 C-20.19619925 47.28572541 -24.26756406 51.35966466 -29 55 C-27.45068859 51.30548816 -25.16487502 48.96669932 -22.375 46.125 C-10.55785192 33.53660948 -3.93522342 16.60388129 0 0 Z " fill="#FC5B19" transform="translate(615,593)"/>
<path d="M0 0 C0.66 0.33 1.32 0.66 2 1 C2.02547169 7.9559653 2.04291782 14.91191846 2.05493164 21.86791992 C2.05994306 24.23153127 2.06675396 26.59513954 2.07543945 28.95874023 C2.08764526 32.36703248 2.09326037 35.77528354 2.09765625 39.18359375 C2.10281754 40.23083115 2.10797882 41.27806854 2.11329651 42.35704041 C2.11374699 48.3233587 1.77689678 54.08321863 1 60 C0.34 59.67 -0.32 59.34 -1 59 C-1.02312851 51.45501767 -1.04091769 43.91003899 -1.05181217 36.36502934 C-1.05703989 32.86191115 -1.0641355 29.35881715 -1.07543945 25.85571289 C-1.08834206 21.83219159 -1.09322912 17.80869586 -1.09765625 13.78515625 C-1.10539818 11.88987938 -1.10539818 11.88987938 -1.11329651 9.95631409 C-1.11337204 8.795186 -1.11344757 7.63405792 -1.11352539 6.43774414 C-1.11685631 4.8955294 -1.11685631 4.8955294 -1.12025452 3.32215881 C-1 1 -1 1 0 0 Z " fill="#F9601F" transform="translate(297,410)"/>
<path d="M0 0 C0.33 0 0.66 0 1 0 C2.12738999 8.77830651 2.03257166 17.41335849 1.75805664 26.23413086 C1.68752934 28.56153176 1.63322327 30.88894165 1.58007812 33.21679688 C1.13077432 50.14613985 1.13077432 50.14613985 -1 56 C-1.99 56.495 -1.99 56.495 -3 57 C-2.76120117 55.04598267 -2.76120117 55.04598267 -2.51757812 53.05249023 C-2.0037734 48.41506303 -1.80276383 43.82258102 -1.71875 39.16015625 C-1.70034058 38.35315781 -1.68193115 37.54615936 -1.66296387 36.71470642 C-1.60489006 34.16403636 -1.55180527 31.61330457 -1.5 29.0625 C-1.08852015 8.84422625 -1.08852015 8.84422625 0 0 Z " fill="#FB651E" transform="translate(712,646)"/>
<path d="M0 0 C3.3 0 6.6 0 10 0 C6.72463302 1.63768349 3.84194981 2.73765408 0.375 3.8125 C-14.77243922 8.82492534 -26.13431537 17.49793037 -37 29 C-37 24.26042164 -34.0165972 22.06602843 -30.890625 18.69921875 C-23.46206495 11.76254984 -10.38931145 2 0 2 C0 1.34 0 0.68 0 0 Z " fill="#FA601D" transform="translate(352,264)"/>
<path d="M0 0 C-3.49050318 3.15764592 -7.26782031 4.07532024 -11.75 5.0625 C-12.50224854 5.23168945 -13.25449707 5.40087891 -14.02954102 5.57519531 C-27.71629564 8.54765086 -41.03904684 9.29085319 -55 9 C-54.67 8.34 -54.34 7.68 -54 7 C-51.70947266 6.65283203 -51.70947266 6.65283203 -48.6640625 6.5078125 C-47.54515625 6.44456787 -46.42625 6.38132324 -45.2734375 6.31616211 C-44.06945312 6.25307861 -42.86546875 6.18999512 -41.625 6.125 C-27.95956305 5.279053 -13.32407368 -0.3601101 0 0 Z " fill="#FB5D1C" transform="translate(554,666)"/>
<path d="M0 0 C6.82563208 0.52281437 12.64986927 3.03419312 18.9375 5.625 C20.03964844 6.07359375 21.14179687 6.5221875 22.27734375 6.984375 C25.52309208 8.31149172 28.76272191 9.65236869 32 11 C32.89348145 11.37092773 33.78696289 11.74185547 34.70751953 12.12402344 C36.97654471 13.07174687 39.23985132 14.03132702 41.5 15 C42.15734131 15.2779541 42.81468262 15.5559082 43.49194336 15.84228516 C47.88115067 17.76230134 47.88115067 17.76230134 49 20 C44.30701715 19.30504109 40.24948822 17.57039358 35.91796875 15.7265625 C35.14495926 15.40215179 34.37194977 15.07774109 33.57551575 14.74349976 C31.11097842 13.70836829 28.64913663 12.66700849 26.1875 11.625 C23.73613472 10.591219 21.28421093 9.55879167 18.83161926 8.52792358 C17.30922778 7.88762698 15.78759943 7.24551161 14.26689148 6.60122681 C9.55185681 4.61304166 4.80154532 2.76954157 0 1 C0 0.67 0 0.34 0 0 Z " fill="#FB5C1A" transform="translate(573,427)"/>
<path d="M0 0 C0.33 0 0.66 0 1 0 C1.93174109 6.08046681 1.98926275 11.77277836 1.7109375 17.90625 C1.65447926 19.80329646 1.60118972 21.7004394 1.55078125 23.59765625 C1.47064259 26.55590358 1.37455811 29.50873851 1.22509766 32.46435547 C0.21619411 43.90785065 0.21619411 43.90785065 4.38769531 54.01953125 C7.17898315 56.03183365 9.90696401 57.51299601 13 59 C14.85302734 60.67773438 14.85302734 60.67773438 16 62 C9.19232789 60.92436918 4.14055801 58.66196437 0 53 C-2.05517205 45.39153338 -1.39798403 37.17970091 -1.25 29.375 C-1.25161986 27.19790753 -1.25808335 25.02081297 -1.26953125 22.84375 C-1.2883437 6.23219996 -1.2883437 6.23219996 0 0 Z " fill="#F65010" transform="translate(297,477)"/>
<path d="M0 0 C0.495 0.99 0.495 0.99 1 2 C-0.03898438 2.09796875 -1.07796875 2.1959375 -2.1484375 2.296875 C-12.9264076 3.40844618 -22.81778309 4.60045561 -30.52734375 12.984375 C-33.00414368 16.37437172 -34.56624894 20.07276883 -36 24 C-36.33 24 -36.66 24 -37 24 C-36.73028252 17.52678048 -34.50695155 13.62901482 -30 9 C-20.87790278 1.62087493 -11.48303867 -0.23922997 0 0 Z " fill="#FA5E1C" transform="translate(515,412)"/>
<path d="M0 0 C-5.88064303 2.45476383 -11.16658678 3.68251428 -17.5 4.25 C-18.79635376 4.3722998 -18.79635376 4.3722998 -20.11889648 4.49707031 C-40.68231484 6.21179011 -40.68231484 6.21179011 -47 2 C-46.34217529 2.01571045 -45.68435059 2.0314209 -45.0065918 2.04760742 C-32.72875448 2.30065964 -20.84544724 2.31516589 -8.75268555 -0.02075195 C-3.24632384 -1.08210795 -3.24632384 -1.08210795 0 0 Z " fill="#FA5817" transform="translate(520,609)"/>
<path d="M0 0 C4.13733461 0.59170391 7.85056382 1.52711374 11.7734375 2.9609375 C12.8459375 3.35023438 13.9184375 3.73953125 15.0234375 4.140625 C16.12945312 4.54796875 17.23546875 4.9553125 18.375 5.375 C19.47328125 5.77460937 20.5715625 6.17421875 21.703125 6.5859375 C27.48085372 8.69196811 33.24601237 10.83000467 39 13 C35.02712602 14.32429133 32.29395835 13.18449606 28.4375 12 C27.69822266 11.77723389 26.95894531 11.55446777 26.19726562 11.32495117 C20.3865935 9.52771663 14.67910756 7.48774531 9 5.3125 C8.21681396 5.01537109 7.43362793 4.71824219 6.62670898 4.41210938 C1.12344547 2.24689094 1.12344547 2.24689094 0 0 Z " fill="#FB5A19" transform="translate(391,651)"/>
<path d="M0 0 C4.62813633 0.55013696 8.04243399 2.5644375 11.875 5.0625 C12.49415283 5.4644458 13.11330566 5.8663916 13.7512207 6.28051758 C20.49897759 10.80360254 26.12715579 16.22642155 29 24 C29.1875 27.375 29.1875 27.375 29 30 C28.7215625 29.4328125 28.443125 28.865625 28.15625 28.28125 C26.99280752 25.98580944 25.76013516 23.74365528 24.5 21.5 C23.26359056 19.29858807 22.07240934 17.1722843 21.09375 14.84375 C19.70661424 12.50543543 18.46872862 12.07023208 16 11 C14.5494363 10.06155768 13.11241849 9.10194234 11.6875 8.125 C7.88084082 5.55361433 4.01872472 3.22312432 0 1 C0 0.67 0 0.34 0 0 Z " fill="#FB5A19" transform="translate(513,544)"/>
<path d="M0 0 C7.56226324 1.47887812 14.63511506 3.81980796 21.875 6.4375 C23.56496094 7.03014648 23.56496094 7.03014648 25.2890625 7.63476562 C26.36671875 8.02212891 27.444375 8.40949219 28.5546875 8.80859375 C29.52905762 9.15720459 30.50342773 9.50581543 31.50732422 9.86499023 C33.93356374 10.96974905 35.28844827 11.98829615 37 14 C24.15077265 11.70549512 11.94354636 6.11219977 0 1 C0 0.67 0 0.34 0 0 Z " fill="#FA5B1A" transform="translate(468,527)"/>
<path d="M0 0 C0.33 0 0.66 0 1 0 C1.62422779 6.68815484 2.12920865 13.28115045 2 20 C1.34 20 0.68 20 0 20 C0 30.23 0 40.46 0 51 C-0.33 51 -0.66 51 -1 51 C-1.02541101 44.70118066 -1.04289254 38.40237461 -1.05493164 32.10351562 C-1.05995204 29.96190904 -1.06676969 27.82030586 -1.07543945 25.67871094 C-1.08760549 22.59569454 -1.09325133 19.51272357 -1.09765625 16.4296875 C-1.10281754 15.47633514 -1.10797882 14.52298279 -1.11329651 13.54074097 C-1.11368501 8.90907835 -0.95837521 4.55642749 0 0 Z " fill="#FC6C23" transform="translate(712,570)"/>
<path d="M0 0 C0.33 0 0.66 0 1 0 C1.79517978 6.32326958 2.18247567 12.50414767 2.1875 18.875 C2.19974609 19.71546875 2.21199219 20.5559375 2.22460938 21.421875 C2.22654297 22.22882812 2.22847656 23.03578125 2.23046875 23.8671875 C2.23457764 24.59019043 2.23868652 25.31319336 2.24291992 26.05810547 C2 28 2 28 0 31 C-0.70902441 20.57188716 -1.35081164 10.41164047 0 0 Z " fill="#F85D1B" transform="translate(297,606)"/>
<path d="M0 0 C6.19998376 0.5105869 11.30293022 3.26335211 16.8125 5.9375 C17.77865234 6.39318359 18.74480469 6.84886719 19.74023438 7.31835938 C26.87029372 10.74058744 26.87029372 10.74058744 28 13 C22.53313527 12.06320407 17.89855135 9.90253547 12.875 7.625 C11.96878906 7.22539063 11.06257813 6.82578125 10.12890625 6.4140625 C9.25878906 6.0221875 8.38867188 5.6303125 7.4921875 5.2265625 C6.70183105 4.87158691 5.91147461 4.51661133 5.09716797 4.15087891 C2.99101721 2.99507045 1.5953163 1.78059533 0 0 Z " fill="#FA5B1A" transform="translate(362,638)"/>
<path d="M0 0 C0.33 0 0.66 0 1 0 C2.12851941 8.93989777 1.93986692 17.70272693 1.5625 26.6875 C1.5091209 28.08265777 1.45638241 29.47784021 1.40429688 30.87304688 C1.27580064 34.24899351 1.1408966 37.62455204 1 41 C0.67 41 0.34 41 0 41 C-0.16955138 36.76852054 -0.32987082 32.53681451 -0.48217773 28.3046875 C-0.53506956 26.86937389 -0.59034678 25.43414589 -0.64819336 23.99902344 C-0.97175709 15.9296254 -1.15925291 8.02410928 0 0 Z " fill="#F44E0F" transform="translate(712,646)"/>
<path d="M0 0 C0.66 0.33 1.32 0.66 2 1 C-8.34971283 9.23016379 -8.34971283 9.23016379 -12 11 C-12.66 10.67 -13.32 10.34 -14 10 C-9.42284316 6.5148552 -4.82419514 3.13572684 0 0 Z " fill="#FD5C19" transform="translate(582,649)"/>
<path d="M0 0 C5 3.33333333 10 6.66666667 15 10 C14.01 10.33 13.02 10.66 12 11 C9.08203125 9.453125 9.08203125 9.453125 5.8125 7.25 C4.72582031 6.53328125 3.63914062 5.8165625 2.51953125 5.078125 C1.68808594 4.39234375 0.85664063 3.7065625 0 3 C0 2.01 0 1.02 0 0 Z " fill="#FB5C1B" transform="translate(298,528)"/>
<path d="M0 0 C0.33 0 0.66 0 1 0 C2.33257403 12.66970387 2.33257403 12.66970387 1 18 C0.67 18 0.34 18 0 18 C-1.33257403 5.33029613 -1.33257403 5.33029613 0 0 Z " fill="#F85716" transform="translate(712,570)"/>
<path d="M0 0 C0.33 0 0.66 0 1 0 C1.91297308 4.97063121 1.91297308 9.02936879 1 14 C0.34 13.67 -0.32 13.34 -1 13 C-1.0272415 11.58344207 -1.04650467 10.16672955 -1.0625 8.75 C-1.07410156 7.96109375 -1.08570313 7.1721875 -1.09765625 6.359375 C-1.00385306 4.09308998 -0.63241063 2.1711105 0 0 Z " fill="#F95917" transform="translate(712,335)"/>
<path d="M0 0 C1.6065676 0.25620684 3.2102483 0.53055871 4.8125 0.8125 C6.15248047 1.03873047 6.15248047 1.03873047 7.51953125 1.26953125 C10.18321256 2.05395393 11.25690322 2.88627799 13 5 C8.02693484 4.50269348 4.36200187 3.44697666 0 1 C0 0.67 0 0.34 0 0 Z " fill="#FC5C19" transform="translate(593,368)"/>
<path d="M0 0 C-6.45 4.09326923 -6.45 4.09326923 -9.234375 3.62109375 C-9.81703125 3.41613281 -10.3996875 3.21117187 -11 3 C-9.73581754 2.30034557 -8.46334598 1.61565237 -7.1875 0.9375 C-6.47980469 0.55464844 -5.77210938 0.17179688 -5.04296875 -0.22265625 C-3 -1 -3 -1 0 0 Z " fill="#FB5A18" transform="translate(567,661)"/>
<path d="M0 0 C0.33 0 0.66 0 1 0 C1.87557031 6.54311329 2.3548854 11.76647981 0 18 C-0.33 18 -0.66 18 -1 18 C-0.505 9.09 -0.505 9.09 0 0 Z " fill="#F85C19" transform="translate(712,646)"/>
<path d="M0 0 C0.33 0 0.66 0 1 0 C1.83796731 4.65537393 2.0161692 8.37078475 1 13 C-1.30143236 9.54785147 -1.13833854 8.76520676 -0.625 4.8125 C-0.51414062 3.91144531 -0.40328125 3.01039063 -0.2890625 2.08203125 C-0.19367187 1.39496094 -0.09828125 0.70789063 0 0 Z " fill="#F75716" transform="translate(712,631)"/>
<path d="M0 0 C3 1 3 1 3 1 Z " fill="#F87C35" transform="translate(400,766)"/>
<path d="M0 0 C3 1 3 1 3 1 Z " fill="#F77B34" transform="translate(378,766)"/>
<path d="M0 0 C0.66 0 1.32 0 2 0 C1.67 0.66 1.34 1.32 1 2 C0.67 1.34 0.34 0.68 0 0 Z " fill="#FA7936" transform="translate(579,366)"/>
<path d="M0 0 C2 1 2 1 2 1 Z " fill="#F87A35" transform="translate(507,766)"/>
<path d="M0 0 C2 1 2 1 2 1 Z " fill="#F77934" transform="translate(467,766)"/>
<path d="M0 0 C2 1 2 1 2 1 Z " fill="#F77B35" transform="translate(435,766)"/>
<path d="M0 0 C2 1 2 1 2 1 Z " fill="#F77B33" transform="translate(430,766)"/>
<path d="M0 0 C2 1 2 1 2 1 Z " fill="#F77932" transform="translate(382,766)"/>
<path d="M0 0 C2 1 2 1 2 1 Z " fill="#F77B35" transform="translate(369,766)"/>
<path d="M0 0 C2 1 2 1 2 1 Z " fill="#F67632" transform="translate(438,664)"/>
<path d="M0 0 C2 1 2 1 2 1 Z " fill="#F77A36" transform="translate(368,575)"/>
<path d="M0 0 C2 1 2 1 2 1 Z " fill="#F47B37" transform="translate(524,260)"/>
<path d="" fill="#85693D" transform="translate(0,0)"/>
<path d="" fill="#F77A37" transform="translate(0,0)"/>
<path d="" fill="#F77B35" transform="translate(0,0)"/>
<path d="" fill="#F97B35" transform="translate(0,0)"/>
<path d="" fill="#F97B35" transform="translate(0,0)"/>
<path d="" fill="#F87B33" transform="translate(0,0)"/>
<path d="" fill="#F97A34" transform="translate(0,0)"/>
<path d="" fill="#FA7834" transform="translate(0,0)"/>
<path d="" fill="#F87B32" transform="translate(0,0)"/>
<path d="" fill="#FA7A34" transform="translate(0,0)"/>
<path d="" fill="#F87933" transform="translate(0,0)"/>
<path d="" fill="#F77B35" transform="translate(0,0)"/>
<path d="" fill="#FA7B37" transform="translate(0,0)"/>
<path d="" fill="#F77A35" transform="translate(0,0)"/>
<path d="" fill="#F97A34" transform="translate(0,0)"/>
<path d="" fill="#F97A34" transform="translate(0,0)"/>
<path d="" fill="#F97B35" transform="translate(0,0)"/>
<path d="" fill="#F97C34" transform="translate(0,0)"/>
<path d="" fill="#F87B34" transform="translate(0,0)"/>
<path d="" fill="#F87B34" transform="translate(0,0)"/>
<path d="" fill="#F97A33" transform="translate(0,0)"/>
<path d="" fill="#F97A35" transform="translate(0,0)"/>
<path d="" fill="#F87B35" transform="translate(0,0)"/>
<path d="" fill="#F77933" transform="translate(0,0)"/>
<path d="" fill="#F67A35" transform="translate(0,0)"/>
<path d="" fill="#F67C35" transform="translate(0,0)"/>
<path d="" fill="#F67B34" transform="translate(0,0)"/>
<path d="" fill="#F57B35" transform="translate(0,0)"/>
<path d="" fill="#F67E3A" transform="translate(0,0)"/>
<path d="" fill="#EC7939" transform="translate(0,0)"/>
<path d="" fill="#F17E39" transform="translate(0,0)"/>
<path d="" fill="#F2803B" transform="translate(0,0)"/>
<path d="" fill="#EB7938" transform="translate(0,0)"/>
<path d="" fill="#EF7D37" transform="translate(0,0)"/>
<path d="" fill="#F28138" transform="translate(0,0)"/>
<path d="" fill="#F87A37" transform="translate(0,0)"/>
<path d="" fill="#F57A36" transform="translate(0,0)"/>
<path d="" fill="#FB7936" transform="translate(0,0)"/>
<path d="" fill="#FD7A36" transform="translate(0,0)"/>
<path d="" fill="#F67937" transform="translate(0,0)"/>
<path d="" fill="#FC7B35" transform="translate(0,0)"/>
<path d="" fill="#FC7C36" transform="translate(0,0)"/>
<path d="" fill="#FA7A33" transform="translate(0,0)"/>
<path d="" fill="#FB7C36" transform="translate(0,0)"/>
<path d="" fill="#FA7634" transform="translate(0,0)"/>
<path d="" fill="#F87834" transform="translate(0,0)"/>
<path d="" fill="#F97C35" transform="translate(0,0)"/>
<path d="" fill="#F97934" transform="translate(0,0)"/>
<path d="" fill="#F57835" transform="translate(0,0)"/>
<path d="" fill="#F77A36" transform="translate(0,0)"/>
<path d="" fill="#F77937" transform="translate(0,0)"/>
<path d="" fill="#F67935" transform="translate(0,0)"/>
<path d="" fill="#F87D37" transform="translate(0,0)"/>
<path d="" fill="#F97E3A" transform="translate(0,0)"/>
<path d="" fill="#F67C38" transform="translate(0,0)"/>
<path d="" fill="#F87A35" transform="translate(0,0)"/>
<path d="" fill="#FB7C36" transform="translate(0,0)"/>
<path d="" fill="#FC7C37" transform="translate(0,0)"/>
<path d="" fill="#FA7937" transform="translate(0,0)"/>
<path d="" fill="#FB7A35" transform="translate(0,0)"/>
<path d="" fill="#FC7935" transform="translate(0,0)"/>
<path d="" fill="#FB7836" transform="translate(0,0)"/>
<path d="" fill="#FA7A34" transform="translate(0,0)"/>
<path d="" fill="#F97936" transform="translate(0,0)"/>
<path d="" fill="#F27B3B" transform="translate(0,0)"/>
<path d="" fill="#F17C39" transform="translate(0,0)"/>
<path d="" fill="#F47D37" transform="translate(0,0)"/>
<path d="" fill="#F67C38" transform="translate(0,0)"/>
<path d="" fill="#F67C38" transform="translate(0,0)"/>
<path d="" fill="#F47B37" transform="translate(0,0)"/>
<path d="" fill="#F57C37" transform="translate(0,0)"/>
<path d="" fill="#F57C38" transform="translate(0,0)"/>
<path d="" fill="#F47D38" transform="translate(0,0)"/>
<path d="" fill="#F47A39" transform="translate(0,0)"/>
<path d="" fill="#F57C38" transform="translate(0,0)"/>
<path d="" fill="#F27C39" transform="translate(0,0)"/>
</svg>
