<?xml version="1.0" encoding="UTF-8"?>
<svg version="1.1" xmlns="http://www.w3.org/2000/svg" width="1536" height="1024">
<path d="M0 0 C506.88 0 1013.76 0 1536 0 C1536 337.92 1536 675.84 1536 1024 C1029.12 1024 522.24 1024 0 1024 C0 686.08 0 348.16 0 0 Z " fill="#161D26" transform="translate(0,0)"/>
<path d="M0 0 C0.967473 -0.00679667 0.967473 -0.00679667 1.9544909 -0.01373065 C4.09548815 -0.02629661 6.23622848 -0.02475947 8.3772583 -0.02310181 C9.92020491 -0.02909154 11.46314854 -0.03589811 13.00608826 -0.04345703 C17.181378 -0.06106876 21.35658569 -0.06581008 25.53190899 -0.0670886 C28.14060757 -0.06851232 30.74928541 -0.07278586 33.35797882 -0.07808304 C42.45833152 -0.09656002 51.55862574 -0.10475567 60.65899658 -0.10317993 C69.14509695 -0.10197582 77.63094409 -0.12313686 86.11698031 -0.15466726 C93.4054429 -0.18078439 100.69382246 -0.19154931 107.98233151 -0.19026911 C112.33467356 -0.18975858 116.68678992 -0.19549342 121.03908539 -0.21662521 C125.12679369 -0.23593353 129.21405903 -0.23618345 133.30178261 -0.22159195 C134.80343838 -0.21949421 136.30512139 -0.22426193 137.80673027 -0.23631287 C139.85246213 -0.25167096 141.89834392 -0.24010123 143.9440918 -0.22705078 C145.66296412 -0.22868508 145.66296412 -0.22868508 147.41656113 -0.2303524 C150.21807861 0.26742554 150.21807861 0.26742554 152.08765507 2.1045475 C153.68720151 5.16501442 153.57750756 7.61173865 153.55865479 11.05551147 C153.55909286 11.72909195 153.55953094 12.40267242 153.5599823 13.09666443 C153.55789807 15.31534158 153.5345856 17.53325597 153.51104736 19.75180054 C153.50545008 21.29307645 153.5011806 22.83435771 153.4981842 24.37564087 C153.48674579 28.4265321 153.45728751 32.47709915 153.42407227 36.52786255 C153.39334959 40.66366185 153.37967419 44.79951369 153.36456299 48.93539429 C153.33241662 57.04621991 153.28123268 65.15678236 153.21807861 73.26742554 C149.35736408 71.99919467 145.63956032 70.6404251 141.92901611 68.98226929 C111.36822831 55.55238311 72.45706276 38.76696174 38.65557861 49.32992554 C29.21074102 53.18584547 21.44196996 58.37048558 16.21807861 67.26742554 C15.59932861 68.30576538 15.59932861 68.30576538 14.96807861 69.36508179 C10.59919046 78.20904636 10.7543746 89.38670321 13.10089111 98.81430054 C17.87252647 111.26479279 26.60736722 118.152012 38.40557861 123.79086304 C43.49215331 126.01623947 48.6136469 128.0592611 53.83135986 129.95101929 C70.40675092 136.01734069 70.40675092 136.01734069 75.21807861 142.26742554 C76.79202888 146.98927633 76.79220913 150.80339273 74.96807861 155.45492554 C72.53357466 159.36752118 70.63955756 161.79359922 66.21807861 163.26742554 C32.69849175 165.91942917 -4.058663 144.83855165 -31.78192139 128.26742554 C-32.91867058 127.8500412 -32.91867058 127.8500412 -34.0783844 127.42422485 C-37.11248754 126.03180199 -38.71772008 124.9191615 -40.78192139 122.26742554 C-42.13930185 115.81250946 -41.9266495 109.42264267 -41.80145264 102.85336304 C-41.79481085 100.91771288 -41.79158423 98.98204827 -41.79161072 97.04638672 C-41.78232229 92.98893919 -41.74311813 88.93328285 -41.68060303 84.87631226 C-41.60166559 79.70494743 -41.57895392 74.53536278 -41.57675648 69.36345482 C-41.57175252 65.36357648 -41.5453716 61.36407073 -41.51187706 57.36433792 C-41.49674699 55.45960089 -41.48600612 53.55482329 -41.47992897 51.65003586 C-41.40167194 36.19078478 -40.01293852 23.58407363 -28.67645264 12.14242554 C-20.365867 4.36108546 -11.59332339 0.03386476 0 0 Z " fill="#EE621F" transform="translate(391.78192138671875,375.7325744628906)"/>
<path d="M0 0 C9.37801221 4.19641546 18.53691479 8.71280877 27.61962891 13.51196289 C28.49774734 13.97508125 29.37586578 14.43819962 30.28059387 14.91535187 C32.43095147 16.04958483 34.58089749 17.1845902 36.73046875 18.3203125 C36.80017976 30.1256067 36.85338689 41.93085139 36.88590527 53.73631001 C36.90151758 59.21889361 36.92267449 64.7013357 36.95678711 70.18383789 C36.98953913 75.48121202 37.00735507 80.77845058 37.01510048 86.0759182 C37.02061565 88.09038614 37.031385 90.10484722 37.04765892 92.11925697 C37.1786194 109.01155197 36.02290639 123.35334326 23.98046875 136.21484375 C12.45848052 146.99670427 -2.56819041 148.93075445 -17.74853516 148.85375977 C-19.24163659 148.86083825 -20.73473087 148.86959126 -22.22781372 148.87986755 C-26.23551026 148.90213364 -30.2428078 148.89947938 -34.25054216 148.89054608 C-37.60608749 148.88539981 -40.9615602 148.8927565 -44.31709802 148.90001816 C-52.2272525 148.91693823 -60.1372136 148.91352407 -68.04736328 148.89672852 C-76.20137913 148.87973945 -84.35486226 148.89575198 -92.50882018 148.9279514 C-99.52910457 148.95462087 -106.54922282 148.96193273 -113.56955278 148.95343632 C-117.7547374 148.9485086 -121.9396002 148.95071691 -126.12474442 148.97122383 C-130.05016383 148.98954483 -133.97481084 148.98366745 -137.90018845 148.95902443 C-139.34014244 148.95400871 -140.78015506 148.95752619 -142.22006226 148.97017288 C-144.18406157 148.98606072 -146.14824794 148.96815954 -148.11221313 148.94850159 C-149.21124277 148.94791528 -150.31027241 148.94732897 -151.44260597 148.94672489 C-154.26953125 148.3203125 -154.26953125 148.3203125 -156.6243 145.99658585 C-158.72249748 142.58347903 -158.80539527 139.75292486 -158.72363281 135.86791992 C-158.72421692 135.135672 -158.72480103 134.40342407 -158.72540283 133.64898682 C-158.72262723 131.24076091 -158.69156227 128.83378955 -158.66015625 126.42578125 C-158.65269194 124.75141577 -158.6469999 123.07704153 -158.64300537 121.40266418 C-158.62776386 117.00480856 -158.58849521 112.60748492 -158.54418945 108.20983887 C-158.50320452 103.71874182 -158.4849875 99.22755845 -158.46484375 94.73632812 C-158.42199917 85.93074599 -158.35376628 77.1255955 -158.26953125 68.3203125 C-153.82392498 69.74662565 -150.0257611 71.45809563 -145.95703125 73.7578125 C-115.14795308 90.63944492 -74.60395447 109.179345 -38.76953125 99.6328125 C-27.74799784 96.08707734 -17.27446967 90.07492513 -11.3671875 79.7421875 C-5.64590949 67.11872712 -4.48765763 55.4961852 -8.95703125 42.3984375 C-15.29692086 27.52988687 -30.23750067 22.00189682 -44.26953125 16.3203125 C-45.79973554 15.72257645 -47.33100289 15.12755525 -48.86328125 14.53515625 C-49.62044434 14.23738281 -50.37760742 13.93960937 -51.15771484 13.6328125 C-52.60294747 13.06746501 -54.05358713 12.51566688 -55.51025391 11.98046875 C-60.42626659 10.05738076 -64.09144682 7.60039736 -67.26953125 3.3203125 C-68.50945144 -0.04079348 -68.61661668 -3.12206188 -68.26953125 -6.6796875 C-57.8861832 -28.64446223 -15.17660046 -6.59852194 0 0 Z " fill="#EE621F" transform="translate(508.26953125,464.6796875)"/>
<path d="M0 0 C0 6.93 0 13.86 0 21 C-2.10375 19.741875 -4.2075 18.48375 -6.375 17.1875 C-15.18400631 12.12959547 -22.55422561 9.77987074 -32.75 9.5625 C-33.4716333 9.53994141 -34.1932666 9.51738281 -34.93676758 9.49414062 C-40.11068365 9.51808563 -43.01717211 10.75871965 -47 14 C-49.35125704 16.89988368 -49.9558484 18.65940197 -50.4375 22.375 C-49.90793424 26.76283055 -49.04922038 29.80981809 -46 33 C-39.9701995 37.09126783 -32.99778269 39.40188709 -26.20898438 41.91235352 C-13.06431275 46.7744462 -2.12042113 51.06733936 5.0234375 63.828125 C8.79571244 72.06483543 7.95526195 82.342632 5.03515625 90.72265625 C0.49888006 100.70246387 -7.53190835 106.36239718 -17.5078125 110.23828125 C-34.21022648 115.34325104 -53.7642878 111.73577957 -69 104 C-71.13330078 102.75268555 -71.13330078 102.75268555 -73 101 C-73.45410156 98.5480957 -73.45410156 98.5480957 -73.390625 95.67578125 C-73.37773438 94.64775391 -73.36484375 93.61972656 -73.3515625 92.56054688 C-73.31804688 91.48869141 -73.28453125 90.41683594 -73.25 89.3125 C-73.23195313 88.22904297 -73.21390625 87.14558594 -73.1953125 86.02929688 C-73.14813508 83.35197854 -73.08232249 80.67643091 -73 78 C-72.41919678 78.39614502 -71.83839355 78.79229004 -71.23999023 79.20043945 C-57.13910101 88.72649623 -42.90857584 95.76084738 -25.46875 92.53125 C-22.0578234 91.4621536 -19.98571542 89.9853583 -17.5 87.4375 C-14.99546644 81.69794394 -15.04472016 76.61445008 -17.1875 70.75 C-22.838828 65.22425707 -30.63059916 62.89108565 -37.9140625 60.125 C-51.04729997 55.11118909 -63.39408059 50.39597595 -70 37 C-73.32716399 28.53294131 -73.13089721 18.90148218 -70.078125 10.33984375 C-65.36985535 0.12153389 -58.06141116 -3.88229702 -48 -8 C-31.74851961 -12.76188054 -14.16928005 -7.87182225 0 0 Z " fill="#F9F3EB" transform="translate(674,422)"/>
<path d="M0 0 C5.89414734 5.10662035 8.44415276 12.28172804 9.21691895 19.90975952 C9.33117553 23.72791975 9.32261029 27.53331532 9.26171875 31.3515625 C9.25423855 32.74830812 9.24855405 34.14506438 9.24456787 35.54182434 C9.22945095 39.18012568 9.19029452 42.81776641 9.14575195 46.45581055 C9.10449382 50.18334014 9.08649237 53.91097872 9.06640625 57.63867188 C9.02378229 64.92481216 8.95355197 72.21027544 8.87109375 79.49609375 C2.27109375 79.49609375 -4.32890625 79.49609375 -11.12890625 79.49609375 C-11.78890625 76.85609375 -12.44890625 74.21609375 -13.12890625 71.49609375 C-14.07765625 72.40359375 -15.02640625 73.31109375 -16.00390625 74.24609375 C-23.91669135 80.88465302 -32.16041368 82.32993062 -42.28125 81.87109375 C-50.93254794 81.02792156 -56.22464666 78.27936917 -61.75390625 71.59375 C-66.08313332 64.98921893 -65.79809367 58.16133142 -65.12890625 50.49609375 C-63.6818333 44.41644498 -59.84030984 40.6578302 -54.85546875 37.09375 C-42.62532562 29.92737673 -27.18220802 27.19742179 -13.12890625 27.49609375 C-13.17269677 20.30966586 -13.17269677 20.30966586 -15.94140625 13.93359375 C-22.80525918 9.42306182 -29.79579349 9.57365128 -37.81640625 10.9609375 C-43.63963113 12.53806091 -48.68574923 15.25726202 -53.87890625 18.2890625 C-56.12890625 19.49609375 -56.12890625 19.49609375 -58.12890625 19.49609375 C-58.12890625 13.55609375 -58.12890625 7.61609375 -58.12890625 1.49609375 C-40.83460654 -7.91403992 -17.06949889 -12.05826986 0 0 Z " fill="#F9F3EB" transform="translate(759.12890625,452.50390625)"/>
<path d="M0 0 C8.41026379 7.07451602 13.72713996 15.74032787 15.125 26.7734375 C15.49660708 32.18032058 15.52794815 37.63402734 15.28125 43.046875 C14.28125 44.046875 14.28125 44.046875 12.07298279 44.16712952 C11.09813431 44.16490891 10.12328583 44.16268829 9.11889648 44.16040039 C8.01783066 44.16032486 6.91676483 44.16024933 5.78233337 44.16017151 C4.5844368 44.15501022 3.38654022 44.14984894 2.15234375 44.14453125 C0.93297623 44.1431163 -0.2863913 44.14170135 -1.54270935 44.14024353 C-5.4555807 44.13462467 -9.36839581 44.12206896 -13.28125 44.109375 C-15.92643147 44.10436243 -18.57161383 44.0997991 -21.21679688 44.09570312 C-27.71746726 44.08464911 -34.21810461 44.06789264 -40.71875 44.046875 C-40.42574547 45.49741666 -40.12472653 46.94634105 -39.8203125 48.39453125 C-39.65354004 49.20156494 -39.48676758 50.00859863 -39.31494141 50.84008789 C-38.61799102 53.41983176 -37.47374323 55.05256451 -35.71875 57.046875 C-35.71875 57.706875 -35.71875 58.366875 -35.71875 59.046875 C-22.41489054 65.78992706 -13.12763591 66.24142278 1.28125 62.046875 C4.68513485 60.83089053 7.96120626 59.48390886 11.28125 58.046875 C11.28125 63.326875 11.28125 68.606875 11.28125 74.046875 C-3.5345705 81.88052722 -18.21145776 85.02111012 -34.78125 80.484375 C-45.88988452 76.50203432 -54.70337917 67.82011542 -59.89453125 57.296875 C-64.21000133 45.51625525 -65.17578676 29.97972985 -59.9765625 18.36328125 C-53.95969934 7.28253636 -46.62043237 -0.25458155 -34.71875 -4.953125 C-23.18256843 -7.99712585 -9.77125947 -7.01958295 0 0 Z " fill="#F9F2EA" transform="translate(1031.71875,451.953125)"/>
<path d="M0 0 C0.60199219 0.39316406 1.20398438 0.78632813 1.82421875 1.19140625 C2.39527344 1.55363281 2.96632813 1.91585938 3.5546875 2.2890625 C9.5655375 6.66733596 12.52698763 14.04998072 13.82421875 21.19140625 C14.09968859 25.93966668 14.05746308 30.68337251 14.01953125 35.4375 C14.0157957 36.81754856 14.01295129 38.1975998 14.01095581 39.57765198 C14.00336199 43.18947827 13.98375069 46.80114074 13.96154785 50.41290283 C13.94099721 54.10662623 13.93193448 57.80037639 13.921875 61.49414062 C13.9005002 68.72664542 13.86535342 75.9589819 13.82421875 83.19140625 C6.56421875 83.19140625 -0.69578125 83.19140625 -8.17578125 83.19140625 C-8.18512695 81.50660156 -8.19447266 79.82179688 -8.20410156 78.0859375 C-8.23974901 72.49383332 -8.29362249 66.90209929 -8.35968399 61.31027222 C-8.399046 57.92281269 -8.43128891 54.5356087 -8.44677734 51.14794922 C-8.46825957 47.24534459 -8.51494129 43.34371676 -8.56640625 39.44140625 C-8.56763489 38.23589111 -8.56886353 37.03037598 -8.57012939 35.78833008 C-8.69089835 28.802728 -9.40450784 24.12698621 -13.17578125 18.19140625 C-16.85290647 14.73058251 -20.75826547 14.69399538 -25.60546875 14.82421875 C-28.99435924 15.30834596 -31.54654333 16.50757039 -34.484375 18.21875 C-36.17578125 19.19140625 -36.17578125 19.19140625 -39.17578125 20.19140625 C-41.37790628 23.38946346 -41.44575075 26.24902724 -41.49462891 30.06152344 C-41.5144986 31.24244568 -41.53436829 32.42336792 -41.55484009 33.64007568 C-41.5721669 35.54493744 -41.5721669 35.54493744 -41.58984375 37.48828125 C-41.6092099 38.79218811 -41.62857605 40.09609497 -41.64852905 41.43951416 C-41.69979208 44.89834561 -41.73944869 48.35721591 -41.77667236 51.81622314 C-41.81674878 55.34893357 -41.86782447 58.88148318 -41.91796875 62.4140625 C-42.01465889 69.33973271 -42.09806853 76.26549736 -42.17578125 83.19140625 C-49.10578125 83.19140625 -56.03578125 83.19140625 -63.17578125 83.19140625 C-63.17578125 55.47140625 -63.17578125 27.75140625 -63.17578125 -0.80859375 C-56.57578125 -0.80859375 -49.97578125 -0.80859375 -43.17578125 -0.80859375 C-42.51578125 2.16140625 -41.85578125 5.13140625 -41.17578125 8.19140625 C-40.71429687 7.7325 -40.2528125 7.27359375 -39.77734375 6.80078125 C-29.28707058 -3.06753896 -13.32342184 -7.28347061 0 0 Z " fill="#F9F3EB" transform="translate(854.17578125,448.80859375)"/>
<path d="M0 0 C22.44 0 44.88 0 68 0 C68 14.89788585 68 14.89788585 62.1875 20.9375 C60.98434668 22.29700084 59.78254625 23.65770007 58.58203125 25.01953125 C57.97697754 25.68549316 57.37192383 26.35145508 56.74853516 27.03759766 C54.14686428 29.95748463 51.76137184 33.02874148 49.375 36.125 C48.48121361 37.27011302 47.58668376 38.41464615 46.69140625 39.55859375 C46.25070801 40.12304199 45.81000977 40.68749023 45.35595703 41.26904297 C43.96077056 43.05007863 42.55766325 44.82460749 41.15234375 46.59765625 C40.67684082 47.19884277 40.20133789 47.8000293 39.71142578 48.41943359 C38.82726701 49.53689918 37.94170634 50.65325827 37.05419922 51.76806641 C32.86623708 57.07194834 28.98718641 62.51761868 25 68 C39.19 68 53.38 68 68 68 C68 73.28 68 78.56 68 84 C44.9 84 21.8 84 -2 84 C-2 67.956254 -2 67.956254 4.375 61.4375 C5.67234243 59.99377565 6.96790406 58.54844914 8.26171875 57.1015625 C8.90157715 56.40708008 9.54143555 55.71259766 10.20068359 54.99707031 C12.69949107 52.22363135 14.95288472 49.2998181 17.1875 46.3125 C18.363125 44.76755859 18.363125 44.76755859 19.5625 43.19140625 C19.95566406 42.67465332 20.34882812 42.15790039 20.75390625 41.62548828 C23.46242503 38.09231468 26.2268337 34.60259937 28.9831543 31.10668945 C32.67656648 26.42028045 36.33634309 21.71041603 40 17 C20.2 16.505 20.2 16.505 0 16 C0 10.72 0 5.44 0 0 Z " fill="#FAF3EC" transform="translate(889,448)"/>
<path d="M0 0 C1.37949829 0.00809692 1.37949829 0.00809692 2.78686523 0.01635742 C11.31290606 0.2055591 18.39300357 1.88714874 26.13671875 5.53125 C28.8879837 8.66089404 28.23336774 12.11946588 28.0625 16.125 C28.04445313 16.92228516 28.02640625 17.71957031 28.0078125 18.54101562 C27.96072247 20.50702449 27.88897899 22.47241494 27.8125 24.4375 C24.74058302 23.24493604 21.79366771 21.96547328 18.875 20.4375 C11.57285995 16.80675133 5.0148209 15.41082995 -3.1875 16.4375 C-5.43490745 17.60340122 -7.39306881 18.64306881 -9.1875 20.4375 C-9.93932653 23.7665959 -9.93932653 23.7665959 -9.1875 27.4375 C-4.23974017 31.98940585 2.47975573 33.89317296 8.75 35.875 C25.4925732 41.50724497 25.4925732 41.50724497 30.875 49.375 C34.32523455 56.49186012 34.05451982 64.90917895 31.99609375 72.4140625 C28.82121317 79.7373062 23.49552775 83.30885102 16.40625 86.53125 C3.89987975 90.90094563 -12.20599861 89.42400524 -24.14453125 84.125 C-26.52200655 82.95455062 -28.85979619 81.70404472 -31.1875 80.4375 C-31.1875 73.8375 -31.1875 67.2375 -31.1875 60.4375 C-29.104375 61.695625 -27.02125 62.95375 -24.875 64.25 C-15.16170283 69.88287686 -5.55985649 72.87766742 5.8125 71.4375 C8.86929317 70.5290325 9.57981068 69.91826591 11.8125 67.4375 C12.81220061 64.48159512 12.7680612 62.39854701 11.8125 59.4375 C6.09434723 54.09636829 -2.11019371 52.32984867 -9.41015625 50.20898438 C-17.49290632 47.70886154 -25.01408717 43.63479778 -29.33984375 36.0390625 C-31.60308295 29.0928998 -31.59204535 19.55938112 -28.6875 12.8125 C-22.37023301 2.73601428 -11.14594881 -0.12509825 0 0 Z " fill="#F9F3EB" transform="translate(1155.1875,445.5625)"/>
<path d="M0 0 C0 39.93 0 79.86 0 121 C-6.93 121 -13.86 121 -21 121 C-21 82.39 -21 43.78 -21 4 C-4 0 -4 0 0 0 Z " fill="#FBF4EC" transform="translate(1086,411)"/>
<path d="M0 0 C4.21433795 2.77763183 6.3955374 5.1866122 8 10 C8.84458002 17.118603 9.01228113 23.52257924 4.53125 29.41015625 C0.03629668 34.07711033 -3.60261613 35.25134072 -9.9375 35.5625 C-15.74195899 35.34456036 -19.78709177 34.06063444 -24 30 C-28.29298827 24.39283165 -29.57993817 18.95925802 -29 12 C-26.72321067 5.15662179 -22.8979629 1.0989031 -16.5625 -2.3125 C-10.29103135 -3.99508915 -5.6903507 -2.95055222 0 0 Z " fill="#F5F0E9" transform="translate(896,570)"/>
<path d="M0 0 C4.40619282 3.70520759 7.57629279 7.49425812 8.28515625 13.359375 C8.47809797 18.89596358 7.89140347 23.14990385 5 28 C0.35956093 32.74785665 -2.9645459 35.15222882 -9.6875 35.3125 C-15.45408204 35.25725131 -18.44279624 34.51284457 -23 31 C-27.13910375 26.63716091 -29.06700153 22.67293689 -29.375 16.6875 C-29.22539158 11.06783367 -27.40458919 6.59563874 -23.57421875 2.4609375 C-16.17263293 -4.07999881 -8.68136541 -4.66221476 0 0 Z " fill="#F6F2EC" transform="translate(1094,570)"/>
<path d="M0 0 C19.42307692 0 19.42307692 0 24.9375 4.625 C26.61708384 8.37936387 26.67020131 11.96437924 26 16 C24.125 18.9375 24.125 18.9375 22 21 C21.34 21.66 20.68 22.32 20 23 C20.49371094 23.75925781 20.98742187 24.51851562 21.49609375 25.30078125 C22.45708984 26.79158203 22.45708984 26.79158203 23.4375 28.3125 C24.07558594 29.29863281 24.71367188 30.28476562 25.37109375 31.30078125 C27 34 27 34 28 37 C24.75 37.40234375 24.75 37.40234375 21 37 C19.26696838 34.77491119 18.17964122 33.05488354 17 30.5625 C15.81576092 28.07612192 14.67726861 26.25532725 13 24 C9.3663139 22.97980949 9.3663139 22.97980949 6 23 C6 27.62 6 32.24 6 37 C4.02 37 2.04 37 0 37 C0 24.79 0 12.58 0 0 Z " fill="#F8F2EB" transform="translate(765,568)"/>
<path d="M0 0 C3.46068928 2.54254722 5.36349503 5.0795033 7 9 C7.96085925 16.9239691 7.03095359 24.4576766 2.55859375 31.16015625 C-1.32274365 35.97805766 -6.0302297 40.06984459 -12 42 C-14.69140625 41.75 -14.69140625 41.75 -17 41 C-18.3125 38.9375 -18.3125 38.9375 -19 37 C-17.906875 36.4225 -16.81375 35.845 -15.6875 35.25 C-12.70529604 33.52346087 -10.58152938 32.16305876 -9 29 C-8.24984805 26.04308291 -8.24984805 26.04308291 -9 23 C-11.87983662 20.2806376 -11.87983662 20.2806376 -15 18 C-15.92350727 15.22947819 -16.16329585 13.43311242 -16.1875 10.5625 C-16.20167969 9.80066406 -16.21585938 9.03882813 -16.23046875 8.25390625 C-15.96903451 5.697168 -15.3811053 4.16113155 -14 2 C-9.54906717 -0.96728856 -5.21812008 -0.75636001 0 0 Z " fill="#F8F2EB" transform="translate(1119,416)"/>
<path d="M0 0 C2.64 0 5.28 0 8 0 C10.28515625 2.29492188 10.28515625 2.29492188 12.0625 5.46875 C12.71347656 6.59667969 13.36445312 7.72460938 14.03515625 8.88671875 C14.69076015 10.09078889 15.34569984 11.2952209 16 12.5 C16.68344807 13.7059896 17.36961948 14.91044018 18.05859375 16.11328125 C19.73257584 19.06043282 21.36985292 22.02837773 23 25 C23.33 16.75 23.66 8.5 24 0 C25.98 0 27.96 0 30 0 C30 12.21 30 24.42 30 37 C23 37 23 37 21.35546875 35.59375 C20.97003906 34.9028125 20.58460937 34.211875 20.1875 33.5 C19.71441406 32.69691406 19.24132813 31.89382813 18.75390625 31.06640625 C18.17511719 30.05449219 17.59632812 29.04257812 17 28 C15.72582643 25.93985933 14.43470359 23.89103477 13.14038086 21.84350586 C11.07939636 18.57123226 9.04217815 15.28404324 7 12 C6.67 20.25 6.34 28.5 6 37 C4.02 37 2.04 37 0 37 C0 24.79 0 12.58 0 0 Z " fill="#F9F4EE" transform="translate(1118,568)"/>
<path d="M0 0 C18.83333333 0 18.83333333 0 24.375 5.25 C26.47596251 8.80547501 26.50916975 10.92664198 26 15 C24.32375739 18.68773373 22.42746406 20.85783496 19 23 C15.98509443 24.00496852 13.95818308 24.10335303 10.8125 24.0625 C9.224375 24.041875 7.63625 24.02125 6 24 C6 28.29 6 32.58 6 37 C4.02 37 2.04 37 0 37 C0 24.79 0 12.58 0 0 Z " fill="#F9F2EC" transform="translate(685,568)"/>
<path d="M0 0 C18.83333333 0 18.83333333 0 24.375 5.25 C26.47596251 8.80547501 26.50916975 10.92664198 26 15 C24.32960956 18.67485897 22.45118836 20.90837069 19 23 C16.02331528 23.93299073 13.35994249 24.10823445 10.25 24.0625 C8.14625 24.0315625 8.14625 24.0315625 6 24 C6 28.29 6 32.58 6 37 C4.02 37 2.04 37 0 37 C0 24.79 0 12.58 0 0 Z " fill="#F9F5EE" transform="translate(602,568)"/>
<path d="M0 0 C1.05583091 15.04978022 1.05583091 15.04978022 -1.27734375 19.359375 C-3.11307978 20.97448969 -4.77631998 21.98923635 -7 23 C-7.66 23.33 -8.32 23.66 -9 24 C-14.54535043 26.42609081 -19.49956826 26.96170452 -25.25 24.75 C-28.05824066 22.96293776 -29.51736906 21.96526189 -31 19 C-31.39087311 15.41699653 -31.26511431 12.79534293 -30.125 9.375 C-22.57302376 0.93455597 -10.62561866 -0.12355371 0 0 Z " fill="#151B23" transform="translate(746,493)"/>
<path d="M0 0 C2.64 0 5.28 0 8 0 C9.71288961 4.94657616 11.42178426 9.89450704 13.12695312 14.84375 C13.70788078 16.52805031 14.28990808 18.21197176 14.87304688 19.89550781 C15.70991158 22.31216812 16.54284253 24.7301529 17.375 27.1484375 C17.63748535 27.9036972 17.8999707 28.65895691 18.17041016 29.43710327 C20 34.77225659 20 34.77225659 20 37 C18.02 37 16.04 37 14 37 C13.01 34.03 12.02 31.06 11 28 C6.05 28 1.1 28 -4 28 C-4.99 30.97 -5.98 33.94 -7 37 C-8.98 37 -10.96 37 -13 37 C-10.77841578 29.21236946 -8.14044703 21.60943974 -5.375 14 C-4.96765625 12.86949219 -4.5603125 11.73898437 -4.140625 10.57421875 C-1.14289096 2.28578193 -1.14289096 2.28578193 0 0 Z " fill="#F8F5EF" transform="translate(650,568)"/>
<path d="M0 0 C3.7229703 2.6592645 6.55543557 5.73587115 8.625 9.875 C8.625 12.845 8.625 15.815 8.625 18.875 C-3.255 18.875 -15.135 18.875 -27.375 18.875 C-27.375 12.18459765 -26.31075525 9.09707526 -22.375 3.875 C-16.07283396 -2.28458309 -8.11320107 -2.70440036 0 0 Z " fill="#151B23" transform="translate(1018.375,462.125)"/>
<path d="M0 0 C7.59 0 15.18 0 23 0 C23 1.98 23 3.96 23 6 C17.72 6 12.44 6 7 6 C7 8.97 7 11.94 7 15 C12.28 15 17.56 15 23 15 C23 16.98 23 18.96 23 21 C17.39 21 11.78 21 6 21 C6 24.3 6 27.6 6 31 C12.27 31 18.54 31 25 31 C25 32.98 25 34.96 25 37 C16.75 37 8.5 37 0 37 C0 24.79 0 12.58 0 0 Z " fill="#F8F2EC" transform="translate(725,568)"/>
<path d="M0 0 C3.87512056 2.33690476 6.55833516 4.67500549 8 9 C8.54508569 13.69131123 8.44834676 17.10330648 6.3125 21.375 C3.14386908 24.97182428 0.84262351 26.72556671 -3.9375 27.4375 C-8.76919577 26.74725775 -11.68914028 24.48564101 -14.875 20.875 C-16.57460974 16.53155289 -16.90610381 12.58759645 -16 8 C-12.23708844 1.61340699 -7.57817716 -1.47202002 0 0 Z " fill="#151B23" transform="translate(890,573)"/>
<path d="M0 0 C4.07938197 3.52310261 5.50955052 6.48575408 6.1875 11.8125 C5.65652654 16.13614103 4.53011886 19.02504311 1.75 22.375 C-1.63360395 24.83580287 -4.20372665 25.62260969 -8.3125 25.375 C-12.51288184 24.65884294 -14.57955002 22.69283179 -17.25 19.375 C-19.22338848 15.42822303 -18.69290148 10.67660477 -18.25 6.375 C-16.62795062 3.0729709 -15.34120239 1.20280871 -12.4375 -1 C-7.75341799 -2.33830915 -4.36569394 -2.18284697 0 0 Z " fill="#151B23" transform="translate(1090.25,574.625)"/>
<path d="M0 0 C1.98 0 3.96 0 6 0 C6.02505615 0.73114014 6.0501123 1.46228027 6.07592773 2.21557617 C6.19222641 5.53971417 6.31479928 8.86359241 6.4375 12.1875 C6.47681641 13.33798828 6.51613281 14.48847656 6.55664062 15.67382812 C6.59853516 16.78564453 6.64042969 17.89746094 6.68359375 19.04296875 C6.72025146 20.06414795 6.75690918 21.08532715 6.79467773 22.13745117 C6.98840063 24.83828463 7.40451953 27.36166128 8 30 C9.41433206 30.2236337 10.83167618 30.42826476 12.25 30.625 C13.03890625 30.74101563 13.8278125 30.85703125 14.640625 30.9765625 C17.3606779 31.00358289 18.73485839 30.47334432 21 29 C22.36839363 26.26321275 22.21634818 23.95735576 22.31640625 20.8984375 C22.35830078 19.68671875 22.40019531 18.475 22.44335938 17.2265625 C22.48267578 15.95554687 22.52199219 14.68453125 22.5625 13.375 C22.60568359 12.09625 22.64886719 10.8175 22.69335938 9.5 C22.79969886 6.33344652 22.90172833 3.16681247 23 0 C24.98 0 26.96 0 29 0 C29.0744389 4.0384057 29.12873729 8.07654293 29.16479492 12.11547852 C29.17983432 13.48794517 29.20027133 14.86036414 29.22631836 16.23266602 C29.26291221 18.21088656 29.27816698 20.18946514 29.29296875 22.16796875 C29.3086792 23.35672607 29.32438965 24.5454834 29.34057617 25.77026367 C28.96529563 29.32910691 28.12106904 31.15110692 26 34 C20.75271839 38.04385783 15.35783448 37.76673072 9 37 C3.87915039 34.66417386 2.13871207 32.1000351 0 27 C-0.34057617 23.84033203 -0.34057617 23.84033203 -0.29296875 20.5078125 C-0.28330078 19.30898438 -0.27363281 18.11015625 -0.26367188 16.875 C-0.23853516 15.6375 -0.21339844 14.4 -0.1875 13.125 C-0.17396484 11.86429688 -0.16042969 10.60359375 -0.14648438 9.3046875 C-0.11123435 6.20268546 -0.06195504 3.10156466 0 0 Z " fill="#F7F3ED" transform="translate(956,568)"/>
<path d="M0 0 C0 1.98 0 3.96 0 6 C-0.639375 5.67 -1.27875 5.34 -1.9375 5 C-5.96888183 3.68363042 -9.78653313 3.62566307 -14 4 C-15.29633621 5.06645115 -15.29633621 5.06645115 -15.0625 7.5625 C-15.041875 8.366875 -15.02125 9.17125 -15 10 C-14.02417969 10.45890625 -13.04835938 10.9178125 -12.04296875 11.390625 C-10.75755225 12.00987674 -9.47241025 12.6296985 -8.1875 13.25 C-7.54490234 13.55035156 -6.90230469 13.85070312 -6.24023438 14.16015625 C-2.61292231 15.92682638 0.11721228 17.35297046 2 21 C2.62738459 25.80421902 1.58006889 29.23180066 -1.3125 33.0625 C-5.92144325 36.28764431 -11.65904027 35.70045374 -17 35 C-19.35768019 34.2315709 -20.92205061 33.38529959 -23 32 C-23 29.69 -23 27.38 -23 25 C-22.25556641 25.433125 -22.25556641 25.433125 -21.49609375 25.875 C-16.85405771 28.41182425 -13.42147406 29.74412389 -8 29 C-5.91015769 27.91325006 -5.91015769 27.91325006 -5 26 C-5.08213703 23.96142498 -5.08213703 23.96142498 -6 22 C-7.87184977 20.7868159 -7.87184977 20.7868159 -10.1875 20 C-14.84277594 18.1023079 -19.23683354 16.22312293 -22.4375 12.1875 C-23.31325348 8.781792 -22.89136765 6.38719708 -22 3 C-15.55802693 -4.79817793 -8.44681443 -4.13721523 0 0 Z " fill="#F7F2ED" transform="translate(1187,570)"/>
<path d="M0 0 C0 1.98 0 3.96 0 6 C-0.639375 5.67 -1.27875 5.34 -1.9375 5 C-6.01236841 3.66943072 -9.75190425 3.83340801 -14 4 C-14.33 5.65 -14.66 7.3 -15 9 C-12.36408613 11.29209902 -9.69160664 12.60722573 -6.5 13.9375 C-0.06479934 16.76814016 -0.06479934 16.76814016 2 20 C2.9297184 26.40472674 2.9297184 26.40472674 0.94140625 29.81640625 C-0.82714408 31.99429464 -2.47442952 33.73721476 -5 35 C-16.18237964 36.02114545 -16.18237964 36.02114545 -20.75 33.375 C-23 31 -23 31 -23.375 27.75 C-23.189375 26.38875 -23.189375 26.38875 -23 25 C-22.1646875 25.433125 -22.1646875 25.433125 -21.3125 25.875 C-16.67610878 28.13054168 -13.25154399 29.456656 -8 29 C-7.01 28.34 -6.02 27.68 -5 27 C-4.7886547 24.6087705 -4.7886547 24.6087705 -6 22 C-8.12335274 20.82238038 -10.31396901 19.98661004 -12.56640625 19.08203125 C-16.36262555 17.39414562 -19.51440698 15.37330482 -22 12 C-22.89320024 8.88603479 -22.58342882 7.34145596 -22 4 C-16.50628518 -5.02538864 -8.60613405 -4.21524933 0 0 Z " fill="#F8F4EF" transform="translate(852,570)"/>
<path d="M0 0 C9.57 0 19.14 0 29 0 C29 1.65 29 3.3 29 5 C25.37 5 21.74 5 18 5 C18 15.56 18 26.12 18 37 C16.02 37 14.04 37 12 37 C12 26.77 12 16.54 12 6 C8.04 6 4.08 6 0 6 C0 4.02 0 2.04 0 0 Z " fill="#FDFBF7" transform="translate(999,568)"/>
<path d="M0 0 C1.98 0 3.96 0 6 0 C6 10.23 6 20.46 6 31 C11.61 31 17.22 31 23 31 C23 32.98 23 34.96 23 37 C15.41 37 7.82 37 0 37 C0 24.79 0 12.58 0 0 Z " fill="#FAF3EB" transform="translate(920,568)"/>
<path d="M0 0 C0.33 1.32 0.66 2.64 1 4 C1.66 4 2.32 4 3 4 C2.67 5.65 2.34 7.3 2 9 C3.45966059 7.54033941 3.85790644 5.86747367 4.5625 3.9375 C4.83191406 3.20402344 5.10132813 2.47054687 5.37890625 1.71484375 C5.58386719 1.14894531 5.78882813 0.58304688 6 0 C8.49936244 2.49936244 9.03723753 4.64808008 10.125 8 C10.47820313 9.0725 10.83140625 10.145 11.1953125 11.25 C12 14 12 14 12 16 C10.18757948 16.02687279 8.37504767 16.04633715 6.5625 16.0625 C5.55316406 16.07410156 4.54382813 16.08570313 3.50390625 16.09765625 C1 16 1 16 0 15 C-0.33 15.66 -0.66 16.32 -1 17 C0.49853516 17.07347656 0.49853516 17.07347656 2.02734375 17.1484375 C3.31769531 17.22320313 4.60804688 17.29796875 5.9375 17.375 C7.86916016 17.47941406 7.86916016 17.47941406 9.83984375 17.5859375 C10.88269531 17.72257813 11.92554688 17.85921875 13 18 C13.33 18.66 13.66 19.32 14 20 C9.05 20 4.1 20 -1 20 C-1.309375 21.464375 -1.61875 22.92875 -1.9375 24.4375 C-2.875 28.875 -2.875 28.875 -4 30 C-5.99958364 30.04080783 -8.00045254 30.04254356 -10 30 C-7.98086853 23.0449018 -5.73400143 16.19969087 -3.3125 9.375 C-2.83200195 8.01181641 -2.83200195 8.01181641 -2.34179688 6.62109375 C-1.56326686 4.41332207 -0.78264756 2.20631463 0 0 Z " fill="#F5F1EC" transform="translate(647,575)"/>
<path d="M0 0 C0.99 0.33 1.98 0.66 3 1 C3 1.33 3 1.66 3 2 C8.61 2 14.22 2 20 2 C20 2.33 20 2.66 20 3 C14.72 3 9.44 3 4 3 C4 5.97 4 8.94 4 12 C9.28 12 14.56 12 20 12 C20 13.98 20 15.96 20 18 C14.39 18 8.78 18 3 18 C3.33 21.3 3.66 24.6 4 28 C9.28 28.33 14.56 28.66 20 29 C20 29.33 20 29.66 20 30 C13.4 30.33 6.8 30.66 0 31 C0 20.77 0 10.54 0 0 Z " fill="#D8D4CF" transform="translate(728,571)"/>
<path d="M0 0 C1.98 0 3.96 0 6 0 C6 12.21 6 24.42 6 37 C4.02 37 2.04 37 0 37 C0 24.79 0 12.58 0 0 Z " fill="#EBE4DA" transform="translate(1043,568)"/>
<path d="M0 0 C17.95652174 0 17.95652174 0 23.9375 4.4375 C25 6 25 6 24.875 7.8125 C21.81818182 15.45454545 21.81818182 15.45454545 18 18 C18.32552083 16.01432292 18.65104167 14.02864583 18.9765625 12.04296875 C19.19577848 9.68244176 19.19577848 9.68244176 17 7 C14.35308332 6.19907746 14.35308332 6.19907746 11.375 5.8125 C8.714375 5.4103125 8.714375 5.4103125 6 5 C6 9.62 6 14.24 6 19 C8.97 19 11.94 19 15 19 C15 19.33 15 19.66 15 20 C11.7 20 8.4 20 5 20 C3.56683102 17.13366205 3.86799639 14.62764499 3.875 11.4375 C3.87242187 10.26058594 3.86984375 9.08367188 3.8671875 7.87109375 C4 5 4 5 5 4 C7.65463121 3.54540142 10.32189138 3.29756762 13 3 C9.37 2.34 5.74 1.68 2 1 C2 12.22 2 23.44 2 35 C1.34 35 0.68 35 0 35 C0 23.45 0 11.9 0 0 Z " fill="#FBF9F5" transform="translate(685,568)"/>
<path d="M0 0 C3.78836346 3.623652 4.21648022 5.86945955 4.375 11.125 C4.31268045 17.39157688 3.38501671 21.44718928 -1 26 C-6.20810363 30.25151316 -10.50929036 30.44219573 -17.1328125 30.43359375 C-20.36953497 29.94411665 -22.32620726 28.84619023 -25 27 C-22.13822943 25.56911472 -20.06624227 26.40008303 -17 27 C-17 26.34 -17 25.68 -17 25 C-15.1746875 24.6596875 -15.1746875 24.6596875 -13.3125 24.3125 C-9.032298 23.25762752 -6.83173152 21.43240185 -4 18 C-2.79444595 15.58889191 -2.71839022 13.68307986 -2.5 11 C-2.11111111 6.22222222 -2.11111111 6.22222222 -1 4 C-0.34 4 0.32 4 1 4 C0.67 2.68 0.34 1.36 0 0 Z " fill="#F8F4EE" transform="translate(900,575)"/>
<path d="M0 0 C3 0.25 3 0.25 5 2.25 C5.22705078 5.13916016 5.22705078 5.13916016 5.1953125 8.7890625 C5.18886719 10.09101562 5.18242188 11.39296875 5.17578125 12.734375 C5.15906929 14.11458595 5.14213939 15.49479429 5.125 16.875 C5.11497006 18.26301452 5.10584423 19.65103589 5.09765625 21.0390625 C5.07401931 24.44278192 5.03814731 27.84641228 5 31.25 C9.95 31.25 14.9 31.25 20 31.25 C20.66 32.57 21.32 33.89 22 35.25 C21.125 37.5 21.125 37.5 20 39.25 C20 37.27 20 35.29 20 33.25 C14.39 33.25 8.78 33.25 3 33.25 C3 23.02 3 12.79 3 2.25 C1.02 2.25 -0.96 2.25 -3 2.25 C-3 14.46 -3 26.67 -3 39.25 C-3.66 39.25 -4.32 39.25 -5 39.25 C-5.04935824 34.01726669 -5.08569949 28.78466824 -5.10986328 23.55175781 C-5.11993431 21.77080933 -5.13359185 19.98987743 -5.15087891 18.20898438 C-5.17507913 15.65230217 -5.18647184 13.09583815 -5.1953125 10.5390625 C-5.20563507 9.74005524 -5.21595764 8.94104797 -5.22659302 8.11782837 C-5.22699226 6.1604278 -5.12241069 4.20356923 -5 2.25 C-3 0.25 -3 0.25 0 0 Z " fill="#080C14" transform="translate(923,565.75)"/>
<path d="M0 0 C16 0 16 0 20 1 C20 2.32 20 3.64 20 5 C15.14891195 6.4083804 10.92900094 5.6621046 6 5 C6 9.62 6 14.24 6 19 C7.98 19 9.96 19 12 19 C12 19.33 12 19.66 12 20 C9.69 20 7.38 20 5 20 C5 14.39 5 8.78 5 3 C8.3 3 11.6 3 15 3 C10.71 2.67 6.42 2.34 2 2 C2 12.89 2 23.78 2 35 C2.99 35 3.98 35 5 35 C5 30.71 5 26.42 5 22 C7.31 22 9.62 22 12 22 C12 22.33 12 22.66 12 23 C10.02 23 8.04 23 6 23 C6 27.62 6 32.24 6 37 C4.02 37 2.04 37 0 37 C0 24.79 0 12.58 0 0 Z " fill="#FBF9F6" transform="translate(765,568)"/>
<path d="M0 0 C7.06234414 -0.35910224 7.06234414 -0.35910224 10.9375 1.125 C13 3 13 3 14.0625 5.9375 C14 9 14 9 12.1875 11.3125 C8.00528888 14.53877715 5.16739718 14.08334512 0 14 C0 9.38 0 4.76 0 0 Z " fill="#1A2028" transform="translate(691,573)"/>
<path d="M0 0 C4.08606506 -0.20776602 7.11349964 -0.29550012 11 1 C13.25851336 3.25851336 13.40988029 3.92039148 13.625 7 C13.40988029 10.07960852 13.25851336 10.74148664 11 13 C7.11349964 14.29550012 4.08606506 14.20776602 0 14 C0 9.38 0 4.76 0 0 Z " fill="#141A21" transform="translate(608,573)"/>
<path d="M0 0 C8.04 -0.48 8.04 -0.48 12.125 1.5625 C14 4 14 4 14 7.625 C13 11 13 11 10 13 C6.64683663 13.26402861 3.36941342 13.08751723 0 13 C0 8.71 0 4.42 0 0 Z " fill="#131A22" transform="translate(771,573)"/>
<path d="M0 0 C0.29445076 5.00566288 0.11763863 7.99160747 -3 12 C-6.34389675 15.1039412 -9.282091 15.60667183 -13.75 16.1875 C-14.92046875 16.34605469 -16.0909375 16.50460937 -17.296875 16.66796875 C-18.18890625 16.77753906 -19.0809375 16.88710938 -20 17 C-20.33 18.98 -20.66 20.96 -21 23 C-21.33 23 -21.66 23 -22 23 C-22.22211116 21.06403108 -22.42722992 19.12610672 -22.625 17.1875 C-22.74101563 16.10855469 -22.85703125 15.02960937 -22.9765625 13.91796875 C-23 11 -23 11 -21 8 C-21 9.32 -21 10.64 -21 12 C-15.08989656 11.64826379 -15.08989656 11.64826379 -9.5 9.875 C-7.29229742 7.11537178 -7.26051963 4.45188515 -7 1 C-4.50935112 0.31292445 -2.62113708 0 0 0 Z " fill="#F9F3EC" transform="translate(628,576)"/>
<path d="M0 0 C0 1.98 0 3.96 0 6 C-0.639375 5.67 -1.27875 5.34 -1.9375 5 C-5.99098851 3.67641191 -9.77419028 3.29706067 -14 4 C-15.98239527 5.86124923 -15.98239527 5.86124923 -17 8 C-17.66 8 -18.32 8 -19 8 C-20.62514468 9.45833358 -20.62514468 9.45833358 -22 11 C-22.33 10.67 -22.66 10.34 -23 10 C-22.83293475 5.65630342 -22.426148 3.51586337 -19.625 0.125 C-13.24587082 -5.03905696 -6.76519993 -3.31356731 0 0 Z " fill="#E7E3DE" transform="translate(1187,570)"/>
<path d="M0 0 C0.99 0 1.98 0 3 0 C4.17152378 3.45670732 5.33639077 6.91562122 6.5 10.375 C6.83386719 11.35984375 7.16773438 12.3446875 7.51171875 13.359375 C7.82753906 14.30039062 8.14335938 15.24140625 8.46875 16.2109375 C8.90864258 17.51490479 8.90864258 17.51490479 9.35742188 18.84521484 C10 21 10 21 10 23 C8.02 23 6.04 23 4 23 C3.01 20.03 2.02 17.06 1 14 C-3.95 14 -8.9 14 -14 14 C-14 13.67 -14 13.34 -14 13 C-9.38 12.67 -4.76 12.34 0 12 C-0.33 11.34 -0.66 10.68 -1 10 C-0.34 10 0.32 10 1 10 C0.649375 9.278125 0.29875 8.55625 -0.0625 7.8125 C-1.10409017 4.6877295 -0.89096572 3.11838004 0 0 Z " fill="#E9E4DE" transform="translate(660,582)"/>
<path d="M0 0 C1.98 0 3.96 0 6 0 C6 0.33 6 0.66 6 1 C13.26 1.33 20.52 1.66 28 2 C28 2.66 28 3.32 28 4 C24.37 4 20.74 4 17 4 C16.67 8.29 16.34 12.58 16 17 C15.01 17.33 14.02 17.66 13 18 C12.67 14.04 12.34 10.08 12 6 C8.04 6 4.08 6 0 6 C0 4.02 0 2.04 0 0 Z " fill="#F8F0E6" transform="translate(999,568)"/>
<path d="M0 0 C3.68095912 4.29158552 6.43742621 8.93546435 9.25 13.8125 C9.70890625 14.60076172 10.1678125 15.38902344 10.640625 16.20117188 C11.76404386 18.13204804 12.88371244 20.06499526 14 22 C13.01 22 12.02 22 11 22 C9.79923828 22.19916016 9.79923828 22.19916016 8.57421875 22.40234375 C6 22 6 22 3.83203125 19.19140625 C3.14020932 17.99233676 2.46759455 16.782023 1.8125 15.5625 C-0.36547693 11.08899937 -0.36547693 11.08899937 -4 8 C-4 7.34 -4 6.68 -4 6 C-3.01 5.67 -2.02 5.34 -1 5 C-0.67 3.35 -0.34 1.7 0 0 Z " fill="#F4EFE9" transform="translate(1127,571)"/>
<path d="M0 0 C0.99 0.33 1.98 0.66 3 1 C2.67 12.22 2.34 23.44 2 35 C9.59 34.67 17.18 34.34 25 34 C25 34.99 25 35.98 25 37 C16.75 37 8.5 37 0 37 C0 24.79 0 12.58 0 0 Z " fill="#E6E3DF" transform="translate(725,568)"/>
<path d="M0 0 C1.98 0 3.96 0 6 0 C6 9.57 6 19.14 6 29 C4 27 4 27 3.77294922 24.47802734 C3.78342285 23.4411377 3.79389648 22.40424805 3.8046875 21.3359375 C3.81435547 19.65371094 3.81435547 19.65371094 3.82421875 17.9375 C3.84097656 16.761875 3.85773438 15.58625 3.875 14.375 C3.88402344 13.19164062 3.89304687 12.00828125 3.90234375 10.7890625 C3.92597188 7.85917477 3.95891486 4.9296866 4 2 C3.34 2 2.68 2 2 2 C2 10.91 2 19.82 2 29 C1.01 28.67 0.02 28.34 -1 28 C-0.34 28 0.32 28 1 28 C0.67 27.34 0.34 26.68 0 26 C-0.08510205 24.0406396 -0.10717656 22.07837206 -0.09765625 20.1171875 C-0.09443359 18.95058594 -0.09121094 17.78398438 -0.08789062 16.58203125 C-0.07951172 15.35871094 -0.07113281 14.13539063 -0.0625 12.875 C-0.05798828 11.64394531 -0.05347656 10.41289063 -0.04882812 9.14453125 C-0.0370133 6.09630608 -0.02054028 3.04817686 0 0 Z " fill="#FDFCF8" transform="translate(1142,568)"/>
<path d="M0 0 C0.99 0 1.98 0 3 0 C3.29445076 5.00566288 3.11763863 7.99160747 0 12 C-4.4749361 15.91556909 -8.1669434 16.11005767 -14 16 C-14 15.34 -14 14.68 -14 14 C-14.99 14 -15.98 14 -17 14 C-17 13.34 -17 12.68 -17 12 C-15.7625 11.87625 -14.525 11.7525 -13.25 11.625 C-8.62456925 11.04580144 -5.87070517 9.58047011 -2 7 C-0.7811879 3.44327821 -0.7811879 3.44327821 0 0 Z " fill="#F2EDE7" transform="translate(708,576)"/>
<path d="M0 0 C1.65 0 3.3 0 5 0 C5 11.22 5 22.44 5 34 C4.67 34 4.34 34 4 34 C3.67 31.03 3.34 28.06 3 25 C2.67 25 2.34 25 2 25 C1.67 28.3 1.34 31.6 1 35 C0.67 35 0.34 35 0 35 C0 23.45 0 11.9 0 0 Z " fill="#FEFCF9" transform="translate(1044,568)"/>
<path d="M0 0 C2.49936244 2.49936244 3.03723753 4.64808008 4.125 8 C4.47820313 9.0725 4.83140625 10.145 5.1953125 11.25 C6 14 6 14 6 16 C2.37 16 -1.26 16 -5 16 C-2.05357143 4.88392857 -2.05357143 4.88392857 0 0 Z " fill="#1A1F26" transform="translate(653,575)"/>
<path d="M0 0 C0.33 0 0.66 0 1 0 C1 4.29 1 8.58 1 13 C1.99 12.67 2.98 12.34 4 12 C4.19484938 14.43711614 4.38115178 16.87437398 4.5625 19.3125 C4.61857422 20.00279297 4.67464844 20.69308594 4.73242188 21.40429688 C4.96581505 24.62512274 5.03224218 26.90327345 4 30 C4.66 30 5.32 30 6 30 C6 30.66 6 31.32 6 32 C4.02 32 2.04 32 0 32 C0 21.44 0 10.88 0 0 Z " fill="#F9F4EE" transform="translate(1011,573)"/>
<path d="M0 0 C0 4.29 0 8.58 0 13 C-0.99 13 -1.98 13 -3 13 C-3 9.37 -3 5.74 -3 2 C-23.79 2 -44.58 2 -66 2 C-66 1.67 -66 1.34 -66 1 C-58.13294925 0.86913059 -50.26589124 0.73870703 -42.39882374 0.60884857 C-38.74561516 0.54853263 -35.09240923 0.48806462 -31.43920898 0.42724609 C-27.91197477 0.3685303 -24.3847341 0.31021786 -20.85748863 0.25218201 C-18.86062033 0.21922189 -16.86375889 0.18584687 -14.86689758 0.15246582 C-13.64600937 0.13244507 -12.42512115 0.11242432 -11.16723633 0.09179688 C-10.09468094 0.07403198 -9.02212555 0.05626709 -7.91706848 0.03796387 C-5.27823878 0.00362111 -2.63905317 0 0 0 Z " fill="#EEE7DF" transform="translate(957,448)"/>
<path d="M0 0 C3.63149326 1.95024638 5.94407299 3.46997537 8.375 6.8125 C8.1875 10.625 8.1875 10.625 7.375 13.8125 C6.385 13.8125 5.395 13.8125 4.375 13.8125 C2.39931822 10.96751823 0.87598594 7.92993233 -0.625 4.8125 C0.035 4.1525 0.695 3.4925 1.375 2.8125 C-4.75603517 0.76882161 -11.35000803 1.74441626 -17.625 2.8125 C-11.95615462 -1.68348082 -6.92944081 -2.26998923 0 0 Z " fill="#ECE9E4" transform="translate(892.625,568.1875)"/>
<path d="M0 0 C2.47599533 3.713993 2.23739325 5.70717909 2.1875 10.125 C2.18105469 11.38570313 2.17460938 12.64640625 2.16796875 13.9453125 C2 17 2 17 1 18 C-0.71865409 18.0935919 -2.44115744 18.11744611 -4.16235352 18.11352539 C-5.26341934 18.11344986 -6.36448517 18.11337433 -7.49891663 18.11329651 C-8.6968132 18.10813522 -9.89470978 18.10297394 -11.12890625 18.09765625 C-12.34827377 18.0962413 -13.5676413 18.09482635 -14.82395935 18.09336853 C-18.7368307 18.08774967 -22.64964581 18.07519396 -26.5625 18.0625 C-29.20768147 18.05748743 -31.85286383 18.0529241 -34.49804688 18.04882812 C-40.99871726 18.03777411 -47.49935461 18.02101764 -54 18 C-54.33 19.32 -54.66 20.64 -55 22 C-55 20.35 -55 18.7 -55 17 C-28.27 16.505 -28.27 16.505 -1 16 C-0.67 10.72 -0.34 5.44 0 0 Z " fill="#E2DBD5" transform="translate(1045,478)"/>
<path d="M0 0 C0.33 0 0.66 0 1 0 C1.66 8.91 2.32 17.82 3 27 C1.02 27 -0.96 27 -3 27 C-2.67 26.34 -2.34 25.68 -2 25 C-1.93944805 23.45167761 -1.93967348 21.9007174 -1.97265625 20.3515625 C-1.99102539 18.96710937 -1.99102539 18.96710937 -2.00976562 17.5546875 C-2.04478264 15.60929797 -2.08381302 13.66397635 -2.12695312 11.71875 C-2.13791016 10.79320312 -2.14886719 9.86765625 -2.16015625 8.9140625 C-2.18541382 7.6448999 -2.18541382 7.6448999 -2.21118164 6.35009766 C-1.98190009 3.79857829 -1.28407492 2.19575227 0 0 Z " fill="#F7F1E9" transform="translate(1121,578)"/>
<path d="M0 0 C3.83032799 0.29464061 6.35234913 0.53045312 9.5 2.8125 C11 5 11 5 10.75 7.25 C10.5025 7.8275 10.255 8.405 10 9 C4.36585366 7.20731707 4.36585366 7.20731707 2.125 5.9375 C-1.15638617 4.48982963 -4.44043389 4.35595661 -8 4 C-8 8.62 -8 13.24 -8 18 C-5.03 18 -2.06 18 1 18 C1 18.33 1 18.66 1 19 C-2.3 19 -5.6 19 -9 19 C-9 13.72 -9 8.44 -9 3 C-5.37 3 -1.74 3 2 3 C2 2.34 2 1.68 2 1 C1.34 0.67 0.68 0.34 0 0 Z " fill="#FBF8F5" transform="translate(616,569)"/>
<path d="M0 0 C1.98 0 3.96 0 6 0 C6.33 10.56 6.66 21.12 7 32 C6.34 32 5.68 32 5 32 C5 22.1 5 12.2 5 2 C4.01 2 3.02 2 2 2 C2.01571045 2.83192871 2.01571045 2.83192871 2.03173828 3.68066406 C2.07342004 6.20372959 2.09936438 8.72672253 2.125 11.25 C2.14175781 12.12269531 2.15851562 12.99539063 2.17578125 13.89453125 C2.18222656 14.73886719 2.18867187 15.58320312 2.1953125 16.453125 C2.20578613 17.22817383 2.21625977 18.00322266 2.22705078 18.80175781 C2 21 2 21 0 25 C0 16.75 0 8.5 0 0 Z " fill="#FDFCF9" transform="translate(920,568)"/>
<path d="M0 0 C0.99 0 1.98 0 3 0 C4.5703125 2.08203125 4.5703125 2.08203125 6.125 4.8125 C6.64320313 5.70582031 7.16140625 6.59914063 7.6953125 7.51953125 C9 10 9 10 10 13 C6.75 13.375 6.75 13.375 3 13 C0.10893594 9.88654639 -0.9129862 7.92234624 -1.3125 3.6875 C-1 1 -1 1 0 0 Z " fill="#F0ECE7" transform="translate(783,592)"/>
<path d="M0 0 C5.65394631 -0.34615998 9.03006806 0.56574762 14 3 C14 4.98 14 6.96 14 9 C13.34 8.690625 12.68 8.38125 12 8.0625 C8.29523985 6.75039745 4.90736009 6.39735865 1 6 C1.33 5.01 1.66 4.02 2 3 C1.34 2.67 0.68 2.34 0 2 C0 1.34 0 0.68 0 0 Z " fill="#E5E1DC" transform="translate(838,567)"/>
<path d="M0 0 C0.33 0 0.66 0 1 0 C1 4.62 1 9.24 1 14 C7.93 14 14.86 14 22 14 C22 14.66 22 15.32 22 16 C14.41 16 6.82 16 -1 16 C-1.13392857 3.67857143 -1.13392857 3.67857143 0 0 Z " fill="#EAE8E4" transform="translate(921,589)"/>
<path d="M0 0 C1 3 1 3 0 6 C0.66 6.66 1.32 7.32 2 8 C2.66 8 3.32 8 4 8 C4.66 11.3 5.32 14.6 6 18 C5.34 18.33 4.68 18.66 4 19 C3.67 17.68 3.34 16.36 3 15 C2.01 15 1.02 15 0 15 C0 15.66 0 16.32 0 17 C-0.66 17 -1.32 17 -2 17 C-3.62246255 11.92980452 -3.63261453 7.44974162 -1.5 2.5625 C-1.005 1.716875 -0.51 0.87125 0 0 Z " fill="#E9E6E2" transform="translate(870,576)"/>
<path d="M0 0 C0.29321709 4.98469052 0.18338925 8.04820644 -3 12 C-5.6875 13.8125 -5.6875 13.8125 -8 15 C-8.33 14.34 -8.66 13.68 -9 13 C-7.68 12.01 -6.36 11.02 -5 10 C-5.99 9.34 -6.98 8.68 -8 8 C-7.67 5.69 -7.34 3.38 -7 1 C-4.50935112 0.31292445 -2.62113708 0 0 0 Z M-10 9 C-8 10 -8 10 -8 10 Z " fill="#EBE8E4" transform="translate(628,576)"/>
<path d="M0 0 C6.0546875 -0.1953125 6.0546875 -0.1953125 8 0 C8.66 0.66 9.32 1.32 10 2 C9 3 9 3 5.9375 3.0625 C4.968125 3.041875 3.99875 3.02125 3 3 C3 5.64 3 8.28 3 11 C3.99 11.33 4.98 11.66 6 12 C6.66 12.66 7.32 13.32 8 14 C5.36 14 2.72 14 0 14 C0 9.38 0 4.76 0 0 Z " fill="#1F2328" transform="translate(608,573)"/>
<path d="M0 0 C1.32 1.65 2.64 3.3 4 5 C3.67 5.99 3.34 6.98 3 8 C2.86555121 9.4681947 2.77641467 10.94085276 2.71875 12.4140625 C2.68136719 13.25710938 2.64398437 14.10015625 2.60546875 14.96875 C2.53484654 16.74738356 2.46453674 18.52602956 2.39453125 20.3046875 C2.35714844 21.14515625 2.31976562 21.985625 2.28125 22.8515625 C2.23581055 24.00906006 2.23581055 24.00906006 2.18945312 25.18994141 C2 27 2 27 1 28 C-1.67058851 28.14115161 -4.32432238 28.04247107 -7 28 C-7 27.67 -7 27.34 -7 27 C-4.69 27 -2.38 27 0 27 C0 18.09 0 9.18 0 0 Z " fill="#070B0F" transform="translate(1124,578)"/>
<path d="M0 0 C-2.475 4.455 -2.475 4.455 -5 9 C-5.66 9 -6.32 9 -7 9 C-7 8.34 -7 7.68 -7 7 C-7.66 7 -8.32 7 -9 7 C-8.67 7.99 -8.34 8.98 -8 10 C-8.99 10.33 -9.98 10.66 -11 11 C-11.35671933 7.16526716 -11.29771416 5.44657125 -9.125 2.1875 C-5.55070566 -1.49192064 -5.47923386 -1.09584677 0 0 Z " fill="#FCF9F4" transform="translate(841,569)"/>
<path d="M0 0 C-0.99 0.66 -1.98 1.32 -3 2 C-3.38411275 4.609621 -3.60293197 7.0058074 -3.6875 9.625 C-3.72166016 10.33140625 -3.75582031 11.0378125 -3.79101562 11.765625 C-3.87351308 13.50985688 -3.93843335 15.25490395 -4 17 C-3.34 17.33 -2.68 17.66 -2 18 C-3.65 18.66 -5.3 19.32 -7 20 C-7.13481759 17.06097651 -7.23399416 14.12810441 -7.3125 11.1875 C-7.35439453 10.35412109 -7.39628906 9.52074219 -7.43945312 8.66210938 C-7.48605754 6.34120963 -7.47460941 4.2734306 -7 2 C-3.04979496 -1.52489748 -3.04979496 -1.52489748 0 0 Z " fill="#D5D3D1" transform="translate(708,452)"/>
<path d="M0 0 C0.33 0 0.66 0 1 0 C1.07347656 0.90492188 1.07347656 0.90492188 1.1484375 1.828125 C1.22320313 2.62734375 1.29796875 3.4265625 1.375 4.25 C1.44460938 5.03890625 1.51421875 5.8278125 1.5859375 6.640625 C2.01507113 9.085877 2.78600638 10.84836903 4 13 C3.01 13.33 2.02 13.66 1 14 C1 14.66 1 15.32 1 16 C2.62626404 17.38232443 4.2925002 18.71937515 6 20 C2.36946757 20 1.04249663 18.7721745 -1.63671875 16.4453125 C-3.46347972 14.50863182 -4.27432067 12.53987766 -5 10 C-4.01 10 -3.02 10 -2 10 C-1.34 6.7 -0.68 3.4 0 0 Z " fill="#EFEDE8" transform="translate(1071,583)"/>
<path d="M0 0 C0.556875 0.28875 1.11375 0.5775 1.6875 0.875 C4.02189686 2.06635767 4.02189686 2.06635767 6.6875 2.9375 C7.450625 3.288125 8.21375 3.63875 9 4 C10 7 10 7 9 10 C5.2404812 9.47784461 2.63228537 8.82726947 0 6 C-0.25 2.8125 -0.25 2.8125 0 0 Z " fill="#ECEAE5" transform="translate(829,595)"/>
<path d="M0 0 C2.14576637 -0.02685938 4.29162645 -0.04633088 6.4375 -0.0625 C7.63246094 -0.07410156 8.82742188 -0.08570313 10.05859375 -0.09765625 C13 0 13 0 14 1 C14.04080783 2.99958364 14.04254356 5.00045254 14 7 C13.360625 6.731875 12.72125 6.46375 12.0625 6.1875 C8.08797739 4.64635858 4.05115505 3.32390688 0 2 C0 1.34 0 0.68 0 0 Z " fill="#F7F3EE" transform="translate(1173,569)"/>
<path d="M0 0 C2.97 0 5.94 0 9 0 C9 0.99 9 1.98 9 3 C7.02 3 5.04 3 3 3 C2.67 5.97 2.34 8.94 2 12 C3.98 12 5.96 12 8 12 C8 12.33 8 12.66 8 13 C5.36 13 2.72 13 0 13 C0 8.71 0 4.42 0 0 Z " fill="#1D2126" transform="translate(771,573)"/>
<path d="M0 0 C2 2 2 2 2.22705078 4.52197266 C2.21657715 5.5588623 2.20610352 6.59575195 2.1953125 7.6640625 C2.18886719 8.78554688 2.18242188 9.90703125 2.17578125 11.0625 C2.15902344 12.238125 2.14226562 13.41375 2.125 14.625 C2.11597656 15.80835938 2.10695313 16.99171875 2.09765625 18.2109375 C2.07402812 21.14082523 2.04108514 24.0703134 2 27 C-0.01483592 24.76180512 -0.95418793 23.47241731 -1.2487793 20.43457031 C-1.19117432 19.49194336 -1.13356934 18.54931641 -1.07421875 17.578125 C-1.01943359 16.55332031 -0.96464844 15.52851562 -0.90820312 14.47265625 C-0.83537109 13.40917969 -0.76253906 12.34570312 -0.6875 11.25 C-0.62626953 10.17105469 -0.56503906 9.09210937 -0.50195312 7.98046875 C-0.34886721 5.31912894 -0.1810454 2.65956003 0 0 Z " fill="#050910" transform="translate(1140,568)"/>
<path d="M0 0 C0.99 0 1.98 0 3 0 C3.99 3.63 4.98 7.26 6 11 C4.02 11 2.04 11 0 11 C-1.49297212 8.01405576 -1.11755228 5.29146376 -1 2 C-0.67 1.34 -0.34 0.68 0 0 Z " fill="#F2EDE8" transform="translate(664,594)"/>
<path d="M0 0 C1.31823302 0.59155331 2.62947051 1.19871463 3.9375 1.8125 C5.03384766 2.31716797 5.03384766 2.31716797 6.15234375 2.83203125 C8 4 8 4 9 7 C8.67 7.99 8.34 8.98 8 10 C2.25 8.125 2.25 8.125 0 7 C0 4.69 0 2.38 0 0 Z " fill="#F3EEE7" transform="translate(1164,595)"/>
<path d="M0 0 C2.31 0 4.62 0 7 0 C6.67 0.66 6.34 1.32 6 2 C6.66 2.33 7.32 2.66 8 3 C8 3.66 8 4.32 8 5 C-3.70615034 5.55353075 -3.70615034 5.55353075 -8 2 C-5.13822943 0.56911472 -3.06624227 1.40008303 0 2 C0 1.34 0 0.68 0 0 Z " fill="#FAF7F3" transform="translate(883,600)"/>
<path d="M0 0 C1.65 0 3.3 0 5 0 C4.01 0.33 3.02 0.66 2 1 C2 4.3 2 7.6 2 11 C6.455 10.505 6.455 10.505 11 10 C8 13 8 13 5.95703125 13.29296875 C3.97135417 13.1953125 1.98567708 13.09765625 0 13 C0 8.71 0 4.42 0 0 Z " fill="#15171B" transform="translate(691,574)"/>
<path d="M0 0 C2.99324263 1.0975223 3.84610901 1.67682892 5.25 4.625 C5.4975 5.40875 5.745 6.1925 6 7 C5.34 7 4.68 7 4 7 C3.67 7.99 3.34 8.98 3 10 C1.02 8.35 -0.96 6.7 -3 5 C-2.01 3.35 -1.02 1.7 0 0 Z " fill="#F3EEE7" transform="translate(785,570)"/>
<path d="M0 0 C12.87 0 25.74 0 39 0 C39 0.99 39 1.98 39 3 C38.01 2.67 37.02 2.34 36 2 C33.27116927 1.84629652 30.56302858 1.74271735 27.83203125 1.68359375 C27.03721848 1.66281265 26.2424057 1.64203156 25.42350769 1.62062073 C22.88659237 1.55527913 20.34957427 1.49631192 17.8125 1.4375 C16.09178628 1.39430014 14.37108292 1.35068537 12.65039062 1.30664062 C8.43369887 1.19961352 4.2169038 1.09830276 0 1 C0 0.67 0 0.34 0 0 Z " fill="#222931" transform="translate(888,466)"/>
<path d="M0 0 C0.33 0 0.66 0 1 0 C1.33 2.97 1.66 5.94 2 9 C7.28 9.33 12.56 9.66 18 10 C18 10.33 18 10.66 18 11 C11.4 11.33 4.8 11.66 -2 12 C-2 3 -2 3 0 0 Z " fill="#FDFAF6" transform="translate(730,590)"/>
<path d="M0 0 C2.31 0 4.62 0 7 0 C7.33 1.32 7.66 2.64 8 4 C7.67 3.34 7.34 2.68 7 2 C5.35 2 3.7 2 2 2 C2 5.96 2 9.92 2 14 C1.34 14 0.68 14 0 14 C0 9.38 0 4.76 0 0 Z " fill="#25272B" transform="translate(771,591)"/>
<path d="M0 0 C0.99 0 1.98 0 3 0 C2.48964169 4.3890815 1.47785723 7.33708062 -1 11 C-3.97 10.505 -3.97 10.505 -7 10 C-6.401875 9.835 -5.80375 9.67 -5.1875 9.5 C-1.81472202 7.18723796 -1.1668452 3.80108663 0 0 Z " fill="#F4EDE6" transform="translate(851,590)"/>
<path d="M0 0 C0.66 0.33 1.32 0.66 2 1 C2 6.94 2 12.88 2 19 C1.01 18.34 0.02 17.68 -1 17 C-1.0562279 14.03471821 -0.95683804 11.31149974 -0.6875 8.375 C-0.62626953 7.57320313 -0.56503906 6.77140625 -0.50195312 5.9453125 C-0.34851492 3.96241876 -0.17604307 1.98101481 0 0 Z " fill="#FDFCFA" transform="translate(672,424)"/>
<path d="M0 0 C1.98 0 3.96 0 6 0 C4.68 0.33 3.36 0.66 2 1 C2 1.99 2 2.98 2 4 C5.3 4 8.6 4 12 4 C12 4.66 12 5.32 12 6 C8.04 6 4.08 6 0 6 C0 4.02 0 2.04 0 0 Z " fill="#D4D3D1" transform="translate(999,568)"/>
<path d="M0 0 C0.66 0.33 1.32 0.66 2 1 C2 6.61 2 12.22 2 18 C0.68 17.34 -0.64 16.68 -2 16 C-1.67 15.34 -1.34 14.68 -1 14 C-0.76970044 11.62876754 -0.58880058 9.25258057 -0.4375 6.875 C-0.35371094 5.59367187 -0.26992187 4.31234375 -0.18359375 2.9921875 C-0.09271484 1.51105469 -0.09271484 1.51105469 0 0 Z " fill="#FCFBF7" transform="translate(1181,452)"/>
<path d="M0 0 C2 2 2 2 3 7 C-0.63 7 -4.26 7 -8 7 C-7.34 5.02 -6.68 3.04 -6 1 C-5.67 1.99 -5.34 2.98 -5 4 C-3.35 4 -1.7 4 0 4 C0 2.68 0 1.36 0 0 Z " fill="#0B0D11" transform="translate(656,584)"/>
<path d="M0 0 C2.95749791 3.46741134 5.07848152 6.86873527 7 11 C6.01 10.67 5.02 10.34 4 10 C3.67 9.34 3.34 8.68 3 8 C2.21625 8.185625 1.4325 8.37125 0.625 8.5625 C-2 9 -2 9 -4 8 C-4 7.34 -4 6.68 -4 6 C-3.01 5.67 -2.02 5.34 -1 5 C-0.67 3.35 -0.34 1.7 0 0 Z " fill="#E7E4DF" transform="translate(1127,571)"/>
<path d="M0 0 C0.99 0.33 1.98 0.66 3 1 C2.01 4.63 1.02 8.26 0 12 C-3 10 -3 10 -3.9375 7.125 C-4 4 -4 4 -2.0625 1.625 C-1.381875 1.08875 -0.70125 0.5525 0 0 Z " fill="#FBF7F1" transform="translate(873,577)"/>
<path d="M0 0 C2.49118953 3.7367843 2.2065226 5.74451819 2.125 10.1875 C2.10695313 11.45980469 2.08890625 12.73210937 2.0703125 14.04296875 C2.03550781 15.50669922 2.03550781 15.50669922 2 17 C1.01 17 0.02 17 -1 17 C-0.67 11.39 -0.34 5.78 0 0 Z " fill="#D4D3D2" transform="translate(1045,478)"/>
<path d="M0 0 C0.99 0 1.98 0 3 0 C3 0.66 3 1.32 3 2 C3.66 2 4.32 2 5 2 C4.67 3.32 4.34 4.64 4 6 C2.02 6 0.04 6 -2 6 C-1.34 4.02 -0.68 2.04 0 0 Z " fill="#EDEBE6" transform="translate(639,599)"/>
<path d="M0 0 C2.97 1.98 2.97 1.98 6 4 C6.33 3.01 6.66 2.02 7 1 C7.66 1.33 8.32 1.66 9 2 C8.67 3.98 8.34 5.96 8 8 C4.82461668 7.65978036 3.97723135 6.97533396 1.75 4.5625 C0 2 0 2 0 0 Z " fill="#FBF8F2" transform="translate(1090,573)"/>
<path d="M0 0 C0 0.99 0 1.98 0 3 C-5.61 3 -11.22 3 -17 3 C-11.49360176 0.24680088 -6.08665912 -0.1902081 0 0 Z " fill="#F0ECE8" transform="translate(648,531)"/>
<path d="M0 0 C1.99954746 -0.04254356 4.00041636 -0.04080783 6 0 C7 1 7 1 7.09765625 4.37890625 C7.09098369 5.77347077 7.07902532 7.16801743 7.0625 8.5625 C7.05798828 9.27341797 7.05347656 9.98433594 7.04882812 10.71679688 C7.03700864 12.47790013 7.01907263 14.23896036 7 16 C6.67 16 6.34 16 6 16 C6 11.71 6 7.42 6 3 C3.69 3 1.38 3 -1 3 C-0.67 2.01 -0.34 1.02 0 0 Z " fill="#282C33" transform="translate(738,493)"/>
<path d="M0 0 C1.32 0.33 2.64 0.66 4 1 C4 2.98 4 4.96 4 7 C-0.95 5.02 -0.95 5.02 -6 3 C-4.68 2.67 -3.36 2.34 -2 2 C-1.34 1.67 -0.68 1.34 0 1 C0 0.67 0 0.34 0 0 Z " fill="#F6F4F1" transform="translate(848,569)"/>
<path d="M0 0 C2.31 0 4.62 0 7 0 C7 0.66 7 1.32 7 2 C6.21625 2.0825 5.4325 2.165 4.625 2.25 C1.8553382 2.70849401 1.8553382 2.70849401 0.875 5 C0.58625 5.66 0.2975 6.32 0 7 C-0.99 7.33 -1.98 7.66 -3 8 C-3.33 7.34 -3.66 6.68 -4 6 C-3.34 6 -2.68 6 -2 6 C-2.33 5.01 -2.66 4.02 -3 3 C-2.34 3 -1.68 3 -1 3 C-0.67 2.01 -0.34 1.02 0 0 Z " fill="#E4E1DB" transform="translate(1080,567)"/>
<path d="M0 0 C0.33 0 0.66 0 1 0 C1.33 3.3 1.66 6.6 2 10 C-0.475 11.485 -0.475 11.485 -3 13 C-3.66 12.01 -4.32 11.02 -5 10 C-4.01 10 -3.02 10 -2 10 C-1.34 6.7 -0.68 3.4 0 0 Z " fill="#E2DFDA" transform="translate(1071,583)"/>
<path d="M0 0 C0.66 0.33 1.32 0.66 2 1 C1.01 1.33 0.02 1.66 -1 2 C-1.33 2.99 -1.66 3.98 -2 5 C-6.31196609 5.94324258 -10.62065881 6.48041715 -15 7 C-12.0356239 5.02374927 -9.21212254 3.70113094 -5.9375 2.3125 C-4.87402344 1.85488281 -3.81054688 1.39726563 -2.71484375 0.92578125 C-1.81894531 0.62027344 -0.92304687 0.31476562 0 0 Z " fill="#0E1115" transform="translate(666,527)"/>
<path d="M0 0 C0 1.98 0 3.96 0 6 C-0.99 6.33 -1.98 6.66 -3 7 C-3.33 7.66 -3.66 8.32 -4 9 C-4.66 8.67 -5.32 8.34 -6 8 C-5.67 5.69 -5.34 3.38 -5 1 C-1.125 0 -1.125 0 0 0 Z M-8 9 C-6 10 -6 10 -6 10 Z " fill="#E6E1DA" transform="translate(626,576)"/>
<path d="M0 0 C2.76223278 2.76223278 2.57856291 5.20706617 3 9 C2.01 8.34 1.02 7.68 0 7 C-0.66 7.66 -1.32 8.32 -2 9 C-2.66 7.68 -3.32 6.36 -4 5 C-3.01 5 -2.02 5 -1 5 C-0.67 3.35 -0.34 1.7 0 0 Z " fill="#EEEAE5" transform="translate(1099,576)"/>
<path d="M0 0 C2.05078125 0.03255208 4.1015625 0.06510417 6.15234375 0.09765625 C6.15234375 1.08765625 6.15234375 2.07765625 6.15234375 3.09765625 C2.77734375 3.22265625 2.77734375 3.22265625 -0.84765625 3.09765625 C-1.50765625 2.43765625 -2.16765625 1.77765625 -2.84765625 1.09765625 C-1.84765625 0.09765625 -1.84765625 0.09765625 0 0 Z " fill="#2A2D31" transform="translate(724.84765625,515.90234375)"/>
<path d="M0 0 C1.65 0.99 3.3 1.98 5 3 C4 5 4 5 3 6 C3.99 6.66 4.98 7.32 6 8 C5.01 8.495 5.01 8.495 4 9 C1.875 8.0625 1.875 8.0625 0 7 C0 4.69 0 2.38 0 0 Z " fill="#F7F5F1" transform="translate(1164,595)"/>
<path d="M0 0 C0.99 0.33 1.98 0.66 3 1 C3 3.31 3 5.62 3 8 C2.01 8 1.02 8 0 8 C0 5.36 0 2.72 0 0 Z " fill="#1E2227" transform="translate(1093,582)"/>
<path d="M0 0 C1.98 0.66 3.96 1.32 6 2 C3.08761258 4.48092261 0.84927445 5.70390197 -3 6 C-3.99 5.34 -4.98 4.68 -6 4 C-4.02 3.34 -2.04 2.68 0 2 C0 1.34 0 0.68 0 0 Z " fill="#EAE7E2" transform="translate(843,583)"/>
<path d="M0 0 C-0.33 1.65 -0.66 3.3 -1 5 C-1.99 5.33 -2.98 5.66 -4 6 C-4.66 5.67 -5.32 5.34 -6 5 C-6 4.01 -6 3.02 -6 2 C-2.25 0 -2.25 0 0 0 Z " fill="#F7F2ED" transform="translate(1079,568)"/>
<path d="M0 0 C1.65 0 3.3 0 5 0 C4.67 0.99 4.34 1.98 4 3 C5.65 3.33 7.3 3.66 9 4 C9 4.33 9 4.66 9 5 C6.36 5 3.72 5 1 5 C0.67 3.35 0.34 1.7 0 0 Z " fill="#FCFAF7" transform="translate(1171,600)"/>
<path d="M0 0 C-1.32 1.32 -2.64 2.64 -4 4 C-4.99 3.34 -5.98 2.68 -7 2 C-7 1.34 -7 0.68 -7 0 C-4.3333581 -1.33332095 -2.83319697 -0.67102033 0 0 Z " fill="#F7F1EB" transform="translate(841,569)"/>
<path d="M0 0 C3.7952131 1.49097658 5.61042731 3.75700849 8 7 C7.01 7 6.02 7 5 7 C0 1.53488372 0 1.53488372 0 0 Z " fill="#E3E1DE" transform="translate(606,462)"/>
<path d="M0 0 C1.32 0.33 2.64 0.66 4 1 C4 2.98 4 4.96 4 7 C3.01 7.495 3.01 7.495 2 8 C0.74335022 5.09399739 0 3.20395416 0 0 Z " fill="#EAE5DF" transform="translate(896,593)"/>
<path d="M0 0 C2.475 0.495 2.475 0.495 5 1 C5.33 1.99 5.66 2.98 6 4 C5.34 4.66 4.68 5.32 4 6 C1 4 1 4 0.3125 1.875 C0.209375 1.25625 0.10625 0.6375 0 0 Z " fill="#EDE7E0" transform="translate(1068,575)"/>
<path d="M0 0 C2.01822917 0.06510417 4.03645833 0.13020833 6.0546875 0.1953125 C4.7346875 0.5253125 3.4146875 0.8553125 2.0546875 1.1953125 C2.0546875 1.8553125 2.0546875 2.5153125 2.0546875 3.1953125 C-0.9153125 2.7003125 -0.9153125 2.7003125 -3.9453125 2.1953125 C-1.9453125 0.1953125 -1.9453125 0.1953125 0 0 Z " fill="#202428" transform="translate(633.9453125,512.8046875)"/>
<path d="M0 0 C0.8971875 0.5259375 0.8971875 0.5259375 1.8125 1.0625 C1.8125 1.3925 1.8125 1.7225 1.8125 2.0625 C-1.1575 2.0625 -4.1275 2.0625 -7.1875 2.0625 C-4.72093412 -0.40406588 -3.34389711 -1.43309876 0 0 Z " fill="#FCFBF7" transform="translate(1086.1875,570.9375)"/>
</svg>
